<mxfile host="app.diagrams.net" agent="Mozilla/5.0 (Windows NT 10.0; Win64; x64) AppleWebKit/537.36 (KHTML, like Gecko) Chrome/128.0.0.0 Safari/537.36" version="24.7.7">
  <diagram name="Página-1" id="eY8p5K-rLhEs8bhCDgHD">
    <mxGraphModel dx="792" dy="771" grid="1" gridSize="10" guides="1" tooltips="1" connect="1" arrows="1" fold="1" page="1" pageScale="1" pageWidth="827" pageHeight="1169" math="0" shadow="0">
      <root>
        <mxCell id="0" />
        <mxCell id="1" parent="0" />
        <mxCell id="EfQH7f-cTQpNGCI3y13K-27" style="edgeStyle=orthogonalEdgeStyle;rounded=0;orthogonalLoop=1;jettySize=auto;html=1;" parent="1" source="EfQH7f-cTQpNGCI3y13K-1" target="EfQH7f-cTQpNGCI3y13K-22" edge="1">
          <mxGeometry relative="1" as="geometry" />
        </mxCell>
        <mxCell id="EfQH7f-cTQpNGCI3y13K-1" value="ComponentManager&amp;lt;IComponent&amp;gt;" style="swimlane;fontStyle=0;childLayout=stackLayout;horizontal=1;startSize=26;fillColor=none;horizontalStack=0;resizeParent=1;resizeParentMax=0;resizeLast=0;collapsible=1;marginBottom=0;whiteSpace=wrap;html=1;" parent="1" vertex="1">
          <mxGeometry x="399" y="540" width="230" height="90" as="geometry" />
        </mxCell>
        <mxCell id="EfQH7f-cTQpNGCI3y13K-2" value="+ field: type" style="text;strokeColor=none;fillColor=none;align=left;verticalAlign=top;spacingLeft=4;spacingRight=4;overflow=hidden;rotatable=0;points=[[0,0.5],[1,0.5]];portConstraint=eastwest;whiteSpace=wrap;html=1;" parent="EfQH7f-cTQpNGCI3y13K-1" vertex="1">
          <mxGeometry y="26" width="230" height="26" as="geometry" />
        </mxCell>
        <mxCell id="EfQH7f-cTQpNGCI3y13K-3" value="+ method: type" style="text;strokeColor=none;fillColor=none;align=left;verticalAlign=top;spacingLeft=4;spacingRight=4;overflow=hidden;rotatable=0;points=[[0,0.5],[1,0.5]];portConstraint=eastwest;whiteSpace=wrap;html=1;" parent="EfQH7f-cTQpNGCI3y13K-1" vertex="1">
          <mxGeometry y="52" width="230" height="38" as="geometry" />
        </mxCell>
        <mxCell id="EfQH7f-cTQpNGCI3y13K-20" style="edgeStyle=orthogonalEdgeStyle;rounded=0;orthogonalLoop=1;jettySize=auto;html=1;entryX=0.5;entryY=0;entryDx=0;entryDy=0;" parent="1" source="EfQH7f-cTQpNGCI3y13K-9" target="EfQH7f-cTQpNGCI3y13K-14" edge="1">
          <mxGeometry relative="1" as="geometry" />
        </mxCell>
        <mxCell id="EfQH7f-cTQpNGCI3y13K-21" style="edgeStyle=orthogonalEdgeStyle;rounded=0;orthogonalLoop=1;jettySize=auto;html=1;entryX=0.5;entryY=0;entryDx=0;entryDy=0;" parent="1" source="EfQH7f-cTQpNGCI3y13K-9" target="EfQH7f-cTQpNGCI3y13K-1" edge="1">
          <mxGeometry relative="1" as="geometry" />
        </mxCell>
        <mxCell id="EfQH7f-cTQpNGCI3y13K-9" value="«interface»&lt;br&gt;IComponent" style="html=1;whiteSpace=wrap;" parent="1" vertex="1">
          <mxGeometry x="339" y="380" width="110" height="50" as="geometry" />
        </mxCell>
        <mxCell id="EfQH7f-cTQpNGCI3y13K-26" style="edgeStyle=orthogonalEdgeStyle;rounded=0;orthogonalLoop=1;jettySize=auto;html=1;" parent="1" source="EfQH7f-cTQpNGCI3y13K-14" target="EfQH7f-cTQpNGCI3y13K-22" edge="1">
          <mxGeometry relative="1" as="geometry">
            <Array as="points">
              <mxPoint x="279" y="710" />
              <mxPoint x="394" y="710" />
            </Array>
          </mxGeometry>
        </mxCell>
        <mxCell id="EfQH7f-cTQpNGCI3y13K-14" value="ComponentView" style="swimlane;fontStyle=1;align=center;verticalAlign=top;childLayout=stackLayout;horizontal=1;startSize=26;horizontalStack=0;resizeParent=1;resizeParentMax=0;resizeLast=0;collapsible=1;marginBottom=0;whiteSpace=wrap;html=1;" parent="1" vertex="1">
          <mxGeometry x="199" y="540" width="160" height="86" as="geometry" />
        </mxCell>
        <mxCell id="EfQH7f-cTQpNGCI3y13K-15" value="+ field:&amp;nbsp;&lt;span style=&quot;text-align: center;&quot;&gt;IComponent&lt;/span&gt;" style="text;strokeColor=none;fillColor=none;align=left;verticalAlign=top;spacingLeft=4;spacingRight=4;overflow=hidden;rotatable=0;points=[[0,0.5],[1,0.5]];portConstraint=eastwest;whiteSpace=wrap;html=1;" parent="EfQH7f-cTQpNGCI3y13K-14" vertex="1">
          <mxGeometry y="26" width="160" height="26" as="geometry" />
        </mxCell>
        <mxCell id="EfQH7f-cTQpNGCI3y13K-16" value="" style="line;strokeWidth=1;fillColor=none;align=left;verticalAlign=middle;spacingTop=-1;spacingLeft=3;spacingRight=3;rotatable=0;labelPosition=right;points=[];portConstraint=eastwest;strokeColor=inherit;" parent="EfQH7f-cTQpNGCI3y13K-14" vertex="1">
          <mxGeometry y="52" width="160" height="8" as="geometry" />
        </mxCell>
        <mxCell id="EfQH7f-cTQpNGCI3y13K-17" value="+ method(type): type" style="text;strokeColor=none;fillColor=none;align=left;verticalAlign=top;spacingLeft=4;spacingRight=4;overflow=hidden;rotatable=0;points=[[0,0.5],[1,0.5]];portConstraint=eastwest;whiteSpace=wrap;html=1;" parent="EfQH7f-cTQpNGCI3y13K-14" vertex="1">
          <mxGeometry y="60" width="160" height="26" as="geometry" />
        </mxCell>
        <mxCell id="EfQH7f-cTQpNGCI3y13K-22" value="ComponentPage" style="swimlane;fontStyle=1;align=center;verticalAlign=top;childLayout=stackLayout;horizontal=1;startSize=26;horizontalStack=0;resizeParent=1;resizeParentMax=0;resizeLast=0;collapsible=1;marginBottom=0;whiteSpace=wrap;html=1;" parent="1" vertex="1">
          <mxGeometry x="259" y="790" width="270" height="86" as="geometry" />
        </mxCell>
        <mxCell id="EfQH7f-cTQpNGCI3y13K-23" value="+ field:&amp;nbsp;&lt;span style=&quot;text-align: center;&quot;&gt;ComponentView&lt;/span&gt;" style="text;strokeColor=none;fillColor=none;align=left;verticalAlign=top;spacingLeft=4;spacingRight=4;overflow=hidden;rotatable=0;points=[[0,0.5],[1,0.5]];portConstraint=eastwest;whiteSpace=wrap;html=1;" parent="EfQH7f-cTQpNGCI3y13K-22" vertex="1">
          <mxGeometry y="26" width="270" height="26" as="geometry" />
        </mxCell>
        <mxCell id="EfQH7f-cTQpNGCI3y13K-24" value="" style="line;strokeWidth=1;fillColor=none;align=left;verticalAlign=middle;spacingTop=-1;spacingLeft=3;spacingRight=3;rotatable=0;labelPosition=right;points=[];portConstraint=eastwest;strokeColor=inherit;" parent="EfQH7f-cTQpNGCI3y13K-22" vertex="1">
          <mxGeometry y="52" width="270" height="8" as="geometry" />
        </mxCell>
        <mxCell id="EfQH7f-cTQpNGCI3y13K-25" value="+ method(type): ComponentManager" style="text;strokeColor=none;fillColor=none;align=left;verticalAlign=top;spacingLeft=4;spacingRight=4;overflow=hidden;rotatable=0;points=[[0,0.5],[1,0.5]];portConstraint=eastwest;whiteSpace=wrap;html=1;" parent="EfQH7f-cTQpNGCI3y13K-22" vertex="1">
          <mxGeometry y="60" width="270" height="26" as="geometry" />
        </mxCell>
        <mxCell id="EfQH7f-cTQpNGCI3y13K-28" value="" style="shape=image;verticalLabelPosition=bottom;labelBackgroundColor=default;verticalAlign=top;aspect=fixed;imageAspect=0;image=data:image/png,iVBORw0KGgoAAAANSUhEUgAAAnsAAANCCAYAAAAeNgpGAAAAAXNSR0IArs4c6QAAAARnQU1BAACxjwv8YQUAAAAJcEhZcwAADsMAAA7DAcdvqGQAANlJSURBVHhe7N0NeFXVgS/8vwqEnHxBPsGEhESiwURIEBMdKA0oItaRuSqPTuvoaF/Q+7x4O7RqmfbacYZph6qV3lvvOyrv1WnHzuiD0hcvLVIrUAv3CirhI1RomISEgOQLQj4O8um71t5rn7P3Pvt8JSfJyT7/3/NsOPvj7L32Pufk/LPWXitXTJla+iWCukJMIVZbyG2dOD0/2LZEscb3WrQi/cQPXhSvjdOmw1dQq1DFHuiPy8GcyxVhrmMk+zbvItqyhDl8SJZj6TsKOPxg9h8LRoFCliOGhYzo+g/ueKEPIfZt7D6isgQh9+H4/BheqwBDue/hYj8H+0Uc2Dleqf4PYjCvNBERDSk3fLcR0ZALE/aIKJHw17tRxBf0+KoRUWgMe0SkxQVGhlFChjzW6BHFmfj+UDLsERElOiZ9okGI/9++GPbIxVj9EYlR+T2fqOEk2rd0pNcpTj4qcfmyymsT8voM98UbpuPxF4AoxP/FYtgjFwr705lGK/kzdSR/ro702yrevlMiuB7GSzagly7uP8bDXUD+XAvOLR/OQX1igmLYozglP7jGFA3+MHSdeHhJB/JWHDbDXDDjWkRwWKevqmBfX1+a10S4/5E13AUc4uOZr3nsMsYwifs3S4wM/DwZ9igO2d/QifJB9pM/a0fdz9tYki+5MRlG6oLE5dvP6QJFKQa7GBLxVh5HQ1TIkXiP298Dw3H9jWOaJ1cb+ZO0hT3XX3EiGnED+MGX0MnXRLtsMfg5HWwXw3mdnY4Vg1Nzp1F4YRzfS0HOI9z7Tj4t4d8bg7sArNkjijMj/X07tAbwA2v4Czm8Ij0/36Ubogvi9us8Gox4oBmNiWo0lnn4DTLsyYtsTEQ0Wsjv9eH/bh/Azwm3BhDjvCI5v+H4ETvc19mtr2ssOL3WV7j4gvG9IAx9hhpE2Bv6whElEvkzbzh+7vFn6wixh7ahfiFC7d+8bgTeEHH/HhzpAhrvFft7JlLRPNd3rmrjuH9xRptIX8BItxsYW9iL9FUe2kLRaMX3xUDx56vLmT8a0XxMBvORCvXcuPuoygLFSaHCfhjj7uKFZivuqP1ZM6oLbkwjh/fsUQyN2k8jxZuR/9kYPb79B8AW8ngNB8+eRU3XNODy+i6//UnDhK/3sGHYIxph/HkX5/gCDSl5eePyEgcUypeM4o9RtBDFs5zOiJxKFAc0yhdROfkBjQTDHtEIidsvuZEQ0Q/1OBavL6T5C9M8xYW4KUgQcXnRAkVbtHg4lVA//JzKxx+UgzbEYY+vEA2nOP6BbJNYnwz5uoye1yahDOEbMZJdx+XnwHi7xlUP2AF+fgZyCgP9qPIjPgjyhRra99sVxaXlUR0hKSlZPSKKTvepDiSnpKo5IiIiGg5sxiUiIiJyMYY9IiIiIhdj2CMiIiJyMYY9IiIiIhdj2CMiIiJyMYY9IiIiIhdj2CMiIiJyMYY9IiIiIhdj2CMiIiJyMYY9IiIiIhdj2CMiIiJyMYY9IiIiIhdj2CMiIiJyMYY9IiIiIhdj2CMiIiJyMYa9EfWf8ZMNP8d//aqajQu5uO3/+hYWZ6lZJ1n3Yvn/dTdS1CwRERHFr+ELe0l5+DJ9huMk1/mo7SzL3OqrucjDabT+Xs3Hg5SbcfOffQXLn/8758Angt5/ff4vsfjPqnAL0x4REVHcG7awdzlnIS5P/7HjpBHhTj6+VPkv/v8LHtTXRUXWlr2NnzyiZuNZyUSk9JxGo5q1GqHz6H8X//jUv+NT3KAFvtvMgS7lbi3o3YgDePWpv8fv+tVyIiIiilvDFvau7HgfV372XW3SnGvzz4vHMgzKGj1j2RU9+/Fl/jeir+HTastaceB1NR/H/rqiAOhqx4dq3mIkz6PrHV/g+79/pgKfDHo/e8gX9DZ36ZsSERFRfLuiuLT8S/U4IklJyerRwF2q2ayFOV/wEy6XfBtfisBnBD2NDHoiCEZGhJF/EWEkXc1KPQfwadcNIqB8gP/0nX9WCyW1bZdYXn8dfvXV01j71+1YsuFWlGjrW7Hxnr/Bv2iPdX/9k7expFjNWNbLGjjjeYI45tq//nvHADfvb3+OlTdZ2z4b/9d9+I4l0Dmfh9wnbM8PfG6M+QJeKxpRIM7xAP7HEwOv0es+1YHklFQ1R0RERMMhbjpoXHn8l3oNn2zCFWHQ17wbsXfxj399HzY2iYdNIsTdcx/+kwxdnSKZZOVinr6R7pEFIkyJwCYC4LxJE8WCEizfcB0OyOfc8wt82lOAJT/5z/q2WvgSQS9LBC5tvTyGsV6uuxV5H/9CP949H6AxSE2dDIsrbzotQqK+D21b9ON0QBtukPN45KeW56/9uNXhuTGmNemKcqaJoJcmrhebbomIiEad+OmNK4LeVXv/Wq/Z63gfXyblafftRdeMezcKsoDGen8t3of/W0Sq9In+mjdZE/fnBWj8X3rNXEl2CpB+Gr/z1dS9iw8P+wPivL+9Vw+Gptq6Rl+AzMfEdKDt5LtqzT/jO5YaREUEtSXFttrCkJ0zAs9DC6Wm+/s+/Ke/wT8OdccO7R69W1HS24rGXhFw7ffwERERUdyLm7AnO2PISWvebXxRr+kTtJ65kfpqFcrSbbVlv29HGyaiQA1vMu9vb0ZJzwFs1Jo/9VDV//FWfwizuBvzrkuxrDeaYht/L8PfP+NAkwiMfx6qI4UITF8tCDjGvD8rCd45w+E89NB6A1b+y99ZaymHiux1q+7R+x9P/A2+88QvfPfwhRyWhYiIiOJK/NTsjcvVOmTIe/e04Cc7Zwiyli9isndrQG3ZcZzuScFEWbX31b/D8puAT183aulkzVw/Dv1vo2ZOp9X2ac2xes1dyk0P4Vcb3tYmoynVuFfuX75zH/7T/2rVAt+vfE2/ZvbaP0kPkUE7ZzidhwiXD8omZhG4Vg712HxqeBU96KmmW9mkqwJf0GFZiIiIKO6MTNiTnS5sHS9kbZ7WfCvH3su+LaADRyTsTZ26d9HaBeRNuht/ffcNwMfv+Js/H7kOJfZQJQLhbcX9+PRdfxOq7Aih32cnJ2vHDc3rf4P/9N8OoL/45shCmHbPoLWZ1sz5PCTjfr4U3Hi3U7CMgVDDq4QaloWIiIji0oiEPe3ePBHu7OQyuc5Y7+uVGyF/jZyVvMdO1s7J++Z+90/+GrbAUPWf8ZNvmQOhaqYVAdDXdCoev2F0zviJabmpNk52xviVr7lV1iyK1RUqnMnnf3Ui+n2dM2QnD2utYMB5PPJTUzOxanruPK7mY6z/I3z0v/8QfHgVNSzL5v9dh//DzhpERERxb0SGXhkyIhT96s8LtIeWYUnUcvtQJdbhVHThh0IxOlrYhlwR4e3T//awFhK1/creu0anDhnwRIjUKsLkMCpi/8u/VYJD2vZq/3IYGKNzh+08Nk6yDdkie+k6dQSJcxx6hYiIaPi5K+wFoXWqyP7Icay9ib8f4rHqyIdhj4iIaPjFTweNofJV1SnDdA+exqnnLhEREZHLuDzs3Y3/+oitU4bBsecuERERkbu4NOypTg8bHkLZ4V/gQVOnDEPwHq9ERERE7pEQ9+xRfOA9e0RERMPP/ffsERERESUwhj0iIiIiF2PYIyIiInIxhj0iIiIiF2PYIyIiInIxhj0iIiIiF2PYIyIiInIxhj0iIiIiF2PYIyIiInIxhj0iIiIiF+OfSyMiIiJyMdbsEREREbkYwx4RERGRizHsEREREbkYwx4RERGRizHsEREREbkYwx4RERGRizHsEUUlCwseXob7ytUsERFRnGPYi0MVS5Zh5ZLr1JyfXP7ovCw1N1Suw31PiOMbk0M5QpPPfwALctVsAsud98AwvF425V/DyofnYFguvzzWE19DRe4cPOr0mmvLxXo1OzB6uB7260hE5CIMe3GofuOHOFZYZf3yFF+c1RP+iE0fdqkFQyN33jScemsd1v5MThuwb8I8ftFGTQ/M35iZpuaHzvD8AuBEnOOCNOx769eob9+JTfuAmbdYfzGouOV69GwV69X8wHRh688/RM/MhfwFgohogBj24tJhfGj58szCgsXii/OTnWhXS4ZK+4e/xlbfQcQX7ScnkFFcNjw1Ra4gg948YOs6vN+iFrlQ7rwqTGmp871X2j+ss/6CUv41LBS/nHx4UM0PymEcaknD1DL+0kFENBBXTczKfVY9jsiYMWPVIxpK/c0XUHB7FSYdrUfT1AX4i6uPYdP7x9CvrZWB4h4sqrkRt2jTZPTtbvAFQVnbc1deM+qaz6olcvuF+r70HUQsd/qNmHFFIz44HKxGUTazPYi/mKeX5frx/Tg3KQNnDxrHsq73l1VffuPFPfhjh7YjQV82P0MvuzyPb9yunjc9GY37jPO3kc2JD9Sq/csymM9dBpMHsPzuW/T1k/vRV3aPw/UJfj2tPCiunI7kE+Zym3Xhj7v1dbllNyL/i88sZQlkO7bpPLVyV17AR75rb75m+uM/E+Fq/KTp4rnXwiNf35RrccvVX6AtYw6+YTpn/z6k0OerHzcDnpvvEK+b2q/lwmehprYSF+p/a7oGXegcX4GFpbK8wII7q3Hhk/8PH2vr7e8B6z5Dn6e+pH3MZNSWpwZ/DxARUVCs2YtbRu3eHCyYfTWO+Wr15Bf1PKTv26CaWtfhl/vSsHBI7tO6DvNmpuHYEfHt7Uh+Kd+DqU3+suyeeD2mqLWa3DJk+tZvwL6eq1GtNTt2ob6pF1OmmZr+xLZT009gt2yqVjVDvzTO8ZNOtVGgimnA+2q7tVtPIGPmzb77xGSQ+EbxMd9+1h6ZhoWFaqVmOK+ng3JR+K2qbD/7EMfSr8e8iDp/yOZNvfbwjFb2N/01smIf1Xhf3+dbf8SZwnmmDiURnm+heBU3y/Wm/fpkIzO9F6dsYddXuzfvZsyEUaunv0dmdn/oO97arb2YeX+U9/J1dONM+gTWMBMRDQDDXhxr//B97JtwvemLUxDhYEqP9d497Us2fQoqYvpN6A8FbwdrijOHM0W731A91rTvxNu+9XrAy5iYrc3Zm/5yy6Ygo+WI/x4v05d7+8HDQWra5DFN94UdPCKOn4Zc7YlZqCgWYdXc/H3w19bm1WG7nkGI8vivr2yuFKedNcjmSvP5iOu/27zPSM/X1ETrrBftAesP420Z5GaafjlR75H3N5p+YTj4kRb6y6Lp0dzeiR7f60pERNFg2ItrXWjvBs40HfI3sWWlAd2dtuDTiVM9acjMUbODpfWyrNI6arxmCgUBciYgo6c7aAgzaL2LVe9ea6cF871YMpgB+/6PCgUiBK3dCizUnhemd6/W69M4xjxTzaJzDZTZsFzPkGTNl//6WGsdY2/Iz1fWwOEEDhkB1vE9or+vBx1qiYgoIgx7o0x7Vy8wIduhOSt0qImYDHqzu/FLx+Y7G6emtdxspKuHkgx61afNTYai/Cb1R1QHEFkDhGOoNx9TBj75vLeOYer9QQKfDHr3T8Buo4lQNoWqVTp7iMlC7gT1UBjy6xmS3sSZ+YlR9qHv1BG7842wli1E82tPV4hfJBw51SYSEVE4DHujjWymTL8ed5mG28idtxAzTUGp/XSvpQdtxRJzbZdek+Q8KLBYZ7k/MAytac24B08nh9vIUI+NYOX/UtebVS1kk54o3V223sa5877mD3facYKw1xzJZkr10GgWnTLbdD9a+c2YaU6jEVzPoWOvebwOZaaaPS2YFU4z3X8oymUu+0DE5HyjqAlsP4SjPVdjoXm8Rnk/ZqG/9i+i89San8PXIhMRUSD2xo1zgT06ZW/Pflxz9x2+3pQzPP+BX/7cH5T6mz+Hp3IeFqrej+M+/RA9xZNVD9lC3DhvLA5tcuptqvc0vVYcU+81aUxOPTKlwLJYj3UWTRcnY9ECo6dsAS60nRdh8KSp5+VZ9GdU4KaiLuw2lak/9Vr8xZ8bzytCz9Zf4NdH1UqzjlOWc73lql4cy0jy9QZuP9xsW1+H988Uma5p+OtpFa43rl/43riqB+utqtdszVj0tKQhyXhORwP6JtdioeqRXNS2C4c9RZZjt59ORtWt81Br6417wNRr1VqO8OebUlSBGcnm18hOvmbXYm6+uQetklKIqorxOO7r3SveA/vEa6D17NWPd0txL97/mek+ywjOU/YKL+rejR1BryUREQVzRXFp+ZfqcUSSkpLVIxqVyr+GR7M+Cn0v3jDTesxOrMNa8038Q8bfdBq040lIg32+W8gOPPK+zgia+wdtOI9FROQ+bMZNNAd/HVdBT95zd9dMU8eMIaY3EZo6ENAAqZ630Q6hEjUZrmWv8PcZ9IiIBog1ezRC9BoyeW/Wsa1DV0um1RpaegCfsDYhRo01e0RENLow7BERERG5GJtxiYiIiFyMYY+IiIjIxRj2iIiIiFyMYY+IiIjIxRj2iIiIiFyMYY+IiIjIxRj2iIiIiFyMYY+IiIjIxRj2iIiIiFyMYY+IiIjIxRj2iIiIiFyMfxs33k1ag9dmFwN9dXh1+xp8pBaPDn+FZ++6C4VqDujH/u2P4qd9atbllj42F4/fkAK07sWta9rU0kSSghfWzEVVKtCydQse2aAWD6kLeP21fbg5TTzsLcFzj2bidX0FEVHCSvCavSKUzV+COfMXosCjFrnU/Te+hddqV+FmNT/05uJvakXQ+3wTHt10v5riOejl4fWXFuEDh+n1e9Qmigxxlm1W5ak1ce6eSlHeuXihWs270OrnRdCDCHlLZ2M6gx4RkSZha/ayypegLLcTzU0eFBUDzbveR6tXrXQhGfYWpQ1j7WDqKrxUey2OjMKaPK1GrvgEXl7ViPVqmeHJVYuwuKANm1fsxQtqmQxRG3MasOSVfrUgTsmwtyAVdb/YgSd3q2Wu0odN6w8Bm2bjrp+rRURElJg1e8lTF6IMe7Fz2050qWUUY6kT4L7K0jyUF4hIcaDBH/SkDXvjP+gREVHCSvh79mTwmxWPNXvGvXoG2Rz66b+qGUXbBtiy6SCmm+6N8x7+GVY07BCP7PfMWfm3U8Id03e8TZhc+wRmpKrlQcuWG+IePdnMa9qHEFAejX27JnH8VXhLzWm0WsQqf7gc5P2NwWv2ZFNvJQrD3IPnu1dP6TuwwzEM2rfzMfav1cQBm1d8jnJ5XLU6cH/+e+MM5m302kjtYaC+But5asc0N0vbajHVNcDWLfhNjrn85u3s5ekPWpsYcA0GdX8ja/aIiJww7MVr2PNRYac3WKCS4czf8eHm0tew/DoEhKxwzbj689pNQcrhuKYw6AtmKmh1fnI/nj0ZOlyaQ+H9N76GyYdNZVT7btH2o5YZYdUS3sSyG4FnLWWyhsrBNlmHasb1h5PgAcZPD0aZDmFP3w9M+3AIkr7g5T9W4PNkmJuLSVtNZVHPC+gUEa4Zt7oEGxf0Y4kvbKnQBnMgVOWUD31BUW3X7RDUQhwzsElc7dseQCPGsEdE5IRDr4x61h6uH33+J3jFl+8EUy1PeH+FO65LEUHLXGO2Az891ARMLsf9aolBBjJfDVzfcXSK/7LT5op//xXPGp0xPhHP1cpmdM4QkymsvvWpNYzi5EG0iP/0/ejuv1EGxyZssYQ2cQzffkQgLSsWwfM1y77eOlwHb+q1uDmqaxCZ9a/swK2/aBCxIgVVD+kdNDY+5lA7F0bRRPGcvhPY5QtAbTjYKv6bkIKl+gLFGirX153Qjp1lqql7YY0tSG34XLuWmTlRlmt3oynoSf3Y1SRCamo6itQSHxlKfYGsHye7xX8BZQ9BBMuviHNo2WquNWzDI1vF8VOvRs1AOpE83ItrkI86Bj0iIguGPRJfrvnIFv8Vzn4Lr91lmrRavFxMtoSmfnSbQ5oKeIHNr2HIGkHzsQJqBOdishw+4/OD1iZbi2It1Hque8K0HzFpTbrRBt4oyFC0YgtuFdNmEdBSb5gbdY/c5tMyRJlDjbofsKkt+hotWSNn7h1s1LwNgKxt8+9nkbWJ1aTvtOVNIAKnuB7R1MYVpCNVBlz7cCxaULWG2bAe/hyfrf8En1WkYfrSyXhGLSYiIh3DHvnIGjv/MCnGZKuBiwXjHjvLsCybtNqogZBNytYy65O/OXjoyJDz8gER3ApKoxrSZH2HvKj+2kEtoLUOoKOHDHoPlSJV1rSpAHrrir0DupZ6s6qsSTT2o84t3v18sgh5szG9vleEvv/A6/PUciIi0jDska0pdhhoPXX7sf+wv1k30A583iv+S8sPMTZgk1bL6Ek3dSoZFVJEMMzTOlH4A5qYBtIxQashEwFNNn8OSgomTRD/tTY4388Xa6096JO1mbYxDHHPZBSK8+mSTdrR+nka/gOnkTPa3g5EREOMYS9BNPfIZsNg97H9K9473K81hz47SS0aSn3dtvsKnTt26PfeVWH5jX+llkiyg4Yxb9xXeBdeKh2GoCpr0QKaa/Nwp2zqHEBISp0Yg3ZmLTSZmz1NHSjs1LalVU5Ns4H33QX0lI2l3W1oEEG9cEElnlSLtLLLDinDFTiJiBJEYvbG9cxAVU2x8zhw7Xux82Czmhk5eu9Y5y9lX4cMp+FNLL1j1TJF66U6Wc0I9qFOHI9pHlbF6XjBhNnWfqyWT36G7rInMO24ffgVexB0GHpF9eS1iHr4leAhydKrNWBoEnEoW2/b4EOdmHqeGs2v2nIz0zZOPVnV806ZymQPZS1bd6Crei5KmxyGfLGX39Lz1XYN5Lrd6XhcG/7F2mPWqYexX6jAae2xa79WwYapiQx74xIROeHfxiUadsECkwpJtkBEkWLYIyJywmZcouFWnYJM9dBCLbf3dKVIJaGjF7jmq6fwiFpCRESs2SMaGQ7NwVLAQMgUJb127xr5sLcEzz2aide15UREiYthj4iIiMjF2IxLRERE5GIMe0REREQuxrBHRERE5GJXTczKfVY9jsiYMWPVI6LElvH4xxg/ezmuzCjExaZtaqnuysxrkP7wb0Ouc3ruQNdJsSjPuU/WqaW6oSprJOWxl4WIiAaGNXtEEfLctlo9koGkBBdbd8P7m29h7DW3B6xLWbxWWx9qnfFcg9M647mh1kmxKk+4skZannBllevDlZWIiGKDNXtEEUq+bY34wBThUnczUu5ci75ffROXu4/iUls9kqpXWNZd7mlF/+aVuHRyX9B1xnPHVz8WdJ3x3KSqh4Oui2V57OfodMwLTVtDllU+d0xeeciyyud+8fErIcuKLy+pK09ERIPBoVfiUFZ2Ns50d+PixYtqCREREdHAsBmXiIiIyMUY9oiIiIhcjGGPiIiIyMUY9oiIiIhcjGGPiIiIyMUY9oiIiIhcjGGPiIiIyMUY9oji3t3If+5FzHjuh8gqVYuIiIgilLhhL2cO5sxf4p9qZoDDRceKB2uq5+O98hw1PwjZFXivtgZrPGp+tChdhmkioOXPV/NEREQjJDHDnmcGqio8aN61ETu3yWkvujzFmFVepDYgiifv4vjT38b+p7+Prga1iIiIKEKJGfa8+1G37X20etU8mtHcJGZyC5CllhARERG5Af82rpI8dSFmFYvYt8scAkfGkPxtXE8R3q4uQaqaRUc97jjYoWZ09xbVYFmxqb3Uts3K8vlYBLGsLQ/vVRhNtF7s3b0Lq+Q1sx/DpqV+G5Z3qhmtqbcGlabD9TXtwn3N+sXXjhWsFdjbiHW7m/GOmtWaen3lEezrfeS9b7Ui0B9H49M/QZ9aGq1xD/wQZbPMn4OzOL5Or3ULXGdmPq5eFmz+NjryzM8J3Mb/C4hDuWVz8bKpOL1OnO0DDyI/TS1v2Y79L72rZnSpK15ESaGaMfHueQNH3tyj5oTaFVh9e5HYx3t45uUP1EIiIhqtGPaUrPIlKMvtxKFtO9Gllo2UmIc9FYbMYUoue1UENyN86eGqA1u212OttiQHr9ZWoNAUnHwBzLdMBTbYw5Va3h8YKA0ry2uQJ8qjhURJldEaCAVteYo/UNroARWm9UaINJ+LIQZhb/53MGNxpi/cBaWFsOk4K8Lc8W1qmYUpyPV+hkOr1+E8ZiHrGRHYTgcGNT1EngoS9qaLswa6jGNpZcz3zwt60DOdt3oe7EFPYtgjInIV9saVcuaIoCcyTFP9iAe92BOhTdZ6ddT7g57U6Q96skZujtikpd4cjjqwvF4ENc8k3GTuHGGpNfPi4zaxT08aHCqMQlp70BbeOtvQIv7LTImmJ0YOFhV7RIg9YNqXF6vqG0WgycH0bLXIx7j3bYBBTxiXlyn+PYVzsbp3TtbAaUFP2oNzp8V/E/MwTpuPnDnYYVuD9j5Ozpulz4sQmTRR/NfS4D/vhk9xule8dNkFaoHJ9pfwzPeeYtAjInIJhj2ts4ZIBd4mHDp6Ri10EY8HMp60tDnXsGlEWEsV4e4zc42apAUw8fxo8lekZJNv7Xy855sqog6M+rl5caTDnBoFbweOiEXRBcfInH9zlwhS+SiJ0VAo3s5W9UjX95IIo77wFysqRBaW+pvYS2/ExDQREg9aaxCJiMh9EjvsyaBXUyziTCcO7dqPs2oxDTHj3j55T+D2bWqq12r24p9RO/gGjvcmI3+ZDH3xP8TK+U757jZCqphUE65zEzMREblJAoe9IpQZQS8O7tMbMl4vTon/QtZyeXudmz2z81AI8XxbxdmgaTWJXuxtClHbGAnt3DyYlmM7N08OpolFp/pjXXCzPehabYQ+ec/n3Wp5PLobObOStabe/VpQ1aeAe/WIiMiVEjTsZaCgphJZbg96mg5safIitbgGr5rDnOygYcyrZs/CigqsVIv89/o1OnaMCM2Ltn7xX06eaX8mWrg0Nw+rziBqzkJtGxDoNB34TOTF1OIbTIMue7CmogSp3kZssTdLa50iZM3Wd4L2GI5eAcaniWLammPR0KbVFMdTCPTfwxeG7KDxo+ex+m+/jhK1iIiIRq+E7I2rD7PiFB6E9r3YebBZzYyMIRl6RfV29XEYesU+3Iml966grU+x9rzVe8P2O/R8DRxaxdzT1j7MS0v9LpwqqcG0NusxNfay24ZWCTdkjN/ge+PqvVrVjBIwdInB1FNWFzisSnKw50oBz/fzHdOx16/DvlUP3QC+nsAm076O7z5aJQJxL/a/9g9Yf0QtJyKiUYlDr8ShIQl7lLgcA6EQYviVrz7+PG4rZNgjInID9sYlcruCdMfaQWP52TZbzeK0r+NmWXvZspNBj4jIBVizF4dYs0ex5vyXPfx/+UN3K5b/6A5MEY/66l7Bj5n0iIhcgWEvDjHsERERUaywGZeIiIjIxRj2iIiIiFyMYY+IiIjIxa6amJX7rHockTFjxqpHNFQ8Hg/OffEFLl++rJbERsbjH2P87OW4MqMQF5usfyfrysxrkP7wb0Ouc3ruQNdJsSjPuU/WqaW6cMckIiJKNKzZczHPbavVIxmCSnCxdTe8v/kWxl5ze8C6lMVrtfWh1hnPNTitM54bap0Uq/JEWlYiIqJExZq9OBSrmr3k29aIF7gIl7qbkXLnWvT96pu43H0Ul9rqkVS9wrLuck8r+jevxKWT+4KuM547vvqxoOuM5yZVPRx0XSzLYz9H+zHlPBERUSK7IjNnUvihV0xb5E4qUI9oqHDoFSIiIoqVK2VNXfhpjDZdJSYiIiIiGj2uvOoqEeLCTSroycBHRERERKOHCHtXiUAXerpSBD5tuvIq9TQiIiIiGg2uHDsuCeGmccaUNF49jYiIiIhGAw69QkRERORiDHtERERELsawR0RERORiVxSXlocfZ88kKSlZPaKhMirG2cuuwHsVOWpG8DZi3e5mvKNmR69ZyHrmQeSnAV2bv43j/GtrREQ0yiVo2CtC2fxKZKk5Tfte7DzYrGZGVtyHPU8R3q4uwan6bVjeqZaNpNJlmLZsOs7GJJwx7BERkbuwZk+jwl+cBL54D3v3FtVgWd7J+KnJi2nYIyIichfes6dpRnOTF8gtsNb2kaPCVI96RERERPGONXtK8tSFmJXXhj279uOsWjZShqRmTzW9pqpZdNTjjoMdasaDNdU1mNa2C/+OG7Cs2AhzHdiyvR5r1ZxhZfl8LEoJd4/e3ch/rlaE5+NofPon6FNLozXugR+ibJb5PXcWx9d9H10NTuvMzMfVy4LN30ZHnvk55m38zbc6/3H89G0mNryBFtwbZD+6oGVr2Y79L72rZqRbsfxHd2CK+IXjd997Cb9XS4mIiGKFYU/yzEBVTTHO1m/EISP/jKCYhz3VmaKvaRfua/b6lr2KenXPnR72KmXG83W0UMug5u0dMmxaAu7fi0HYm/8dzFic6RC6bMI24xplEXo/w6HV63DeCHen7eFLCHpcUyD0hTa1b1OI04OeiIC+5wdu48ewR0REQyuBm3HlfXpLMEdOIuh52vfGRdCLvRy8KkNaR70/6EmdRtAzsfSo9WJVo7ggnkm4SYZAsf0d27dp0xZ5neS2al5OgR013sXxp7+N/YOp1cvLFP+ewrlQQS8aMmxpQU/ag3OnxX8T8zBOm4+CJbS9izMt4j/TfsZli1+Ieo+i11fuwG38PsCr33sKzzDoERHREEngsNeMQ9s2YqeaDqFSBL857rtnz+OBjEwtbREk2X6vtVnW2yuCmnj+CN2id/7NXehCPkqeexEznvshskrVigHydraqR7q+l0QY9YW/2DnfeRZIm4o0X3nvRkahOH7DpzE/FhERUTjsoKF0HdwrgkU2CqdmqCWk8+KUqUJweBm1g2/geG8y8pfJ0Pci8uer1XHqfNsp8a+/vDNUE+6RN/foGxAREQ0jhj2bs/1n1COX8IqwJv7LTBlA9ZwnDanoR9uIhT3DHnStNkIfkFV+t1oej2Yha24+vHveEOWVZVZTwL16REREw4NhT5OBgppKZHmb0Oy6+/Y6sKXJi9TiGryarRZJsoOGed5O9t7VOnU0BvTGjYzslCBrtb7j7wE8aAUYnxbYHIuGNq0HdTyFQE92gXoUjuyg8TxW/+gHWDpNLSIiIoqhxOyNmzMHcyqsScfbtB11R+OjVm9Ihl6x96Z1GHpF641rEtjDVjdcQ6+krngRJYVqRpE1Zo7NoapHrv8UAodeSQ72XI1RXge+DhnOPXi1ck40evkKAWUxOF2LaVj6t49hhgixfXWv4Mfrj6jlREREscGhV+LQ8P8FDRX2+s0BkAYmWLBUYdJp+JXaFVh9exHDHhERDQk24xLFUmkeHH8dUssDmqBlzd4tReL/ZnzEoEdEREOANXtxiDV7o5w2KHO+mvHrsg36/NXHn8dtspm6tw6v/9O/oVFfTEREFFMMe3Fo+MMeERERuRWbcYmIiIhcjGGPiIiIyMUY9oiIiIhcjGGPiIiIyMUY9oiIiIhcjGGPiIiIyMUY9oiIiIhcjGGPiIiIyMUY9oiIiIhcjGGPiIiIyMUY9oiIiIhcjGGPiIiIyMUY9oiIiIhcjGGPiIiIyMWuKC4t/1I9jkhSUrJ6REMlKzsbZ7q7cfHiRbVkNMrBq7UVKIQXe3fvwiqvWqzxYE11DSo9atZxGxeY/x3MWJwP9H6GQ6vX4bxaTERENJxYs4cilM1fgjliKstRi2iIebFq9zbcsV1M9R1qWXxIXfEiZjyzDOPUPBER0WiX8GEveeq1yFKPKZY6sFyGue0urLGL1LafYP/T38Z+1uoREdEISuyw55mBsmIPuur3okstIiIiInKThL5nL6t8CcpSm7Bn1xkUza8E6jfiUBy0Kg7FPXsry+djkamZuqV+G5Z36o/vLarBsryT2NI2CYtE+IW3Eevqgb+sLkEqOrBlez3W6psC2RV4r8Lc3m1b77tXz2Bfb6PtLyXkPXvjHvghymYlw7vnDRx5c49aGq27kf9crbUWt2U79r/0rnjgsM7EfFytLKVHcWh1G3JMz7GUzbhXz+A7jp9sLi6BWH6w1LTtWRxf9310NahZqXQZpi2bDt/tjT7H0fj0T9Cn5oBpWPq3j2FGWi/2v/YPWH9ELSYiooSXuDV7OXNQlutF84H94ivWzWRnCBH0UK/fIyen3Y3IrJiPV7PVJpKnBItSG7V1fZ5J+MuKNOwUIa1FhLc5RSpqeIrwdl6bfz/bd2GvNweLqotwr76FYDTfbsO6pnhpv52FrGdEMJOhSzarGpMvgL2L42pZY4uYlR0qTNsFBMy06SgTQQ+b1Tabj8Mz615klar1RvPt02/geK9a5qSwFjPm9qhjyW2Tkf+A6X5BFfQggqRRFq18AUGPiIgouAQNexkoKBFJp/1PaHX7/WTZJaj0dGDLQVOVpbcZO8VsYZ65hs6LvU3GNiLctTUG1saJ591n3o94zsdt4gJ60kw1ebF3/s3va0Fn4LV6BRifJkrb2armB0vWwH0bx7ep2dYecSWSMb5AzUfK0kt3D3obxK8daen+sFeQLl6Jszj9qf+8+w4eF/9mIskIlj5HsP6fnsIz32OtHhERWSVk2EueWo0iTycOHWxWS9zr3pQU8W8OFtXOx3umSWvSTfGYauT6IXOb4VS/cwqWzcHm/SyTzb5x71107DkLz6wHMeO5FzFjxd1q+UCdwrkG9VBqWIcjIoz6wl+sqBA58cZZagGQWi6HcjkqgqFaQEREFEYChr0iFImA4m2qT6BOGfK+OaPp1TTtbsY7aotI6Pf9yTHx/PuIn6ba0IzaQdnkqjWfytAX70OsNLRptxj4QqqYSgqPo5G9e4mIKAqJF/ZyCrSb6j3FtdrYevpUqS3LqnDfeHvv9PeLf1OQN+gKOA/yZCVhR+PoHkrFuJ9Ohr60qUgLaA6NH+MeqEGW7f7B/bxXj4iIopR4Ya9jJ3Zu22ib9KFXuur1+XjokRsznY3Y6/WgsroCK9WigfGiTcuN/qZfrRfvMDTjyh6wslZr2gP+5szBGpeXKf61NccK5zvlfXNxFALN9/CFJHvjPo/VP3oey2vVIiIiIoF/Lk0j/4qGm4desf95Mp0x/Ioe2vr1IVJkj9vqEpzS1unDqGQ27cJ9zbI6zzasihyipTENyyrgH15FPT9V28CqL9h+zDrqcYelE0gMhl5xHL4keI9WbVgUU+EChl6ZdSpkb1ijvIH8Q6tox5ho/TNqgfuWvYgfRH6aNmPRtTnwHsGvPv48bpPlbnkPz7z8gb6QiIgSHsNeHHLH38alwXIKhJIeRh3C6rSv47uPViGVYY+IiEwSdOgVong3C0kT1UMLtby3J6CTxldvE0EPvdj/OwY9IiLyY81eHGLNHumC/GUP21/kKFn6AzxSJdt6m/G7772E3+uLiYiINAx7cYhhj4iIiGKFzbhERERELsawR0RERORiDHtERERELsawR0RERORiDHtERERELsawR0RERORiDHtERERELsawR0RERORiDHtERERELsawR0RERORiDHtERERELsawR0RERORiDHtERERELsawR0RERORiDHtEAzDugR9ixnMvYsaKu9USIiKi+JSgYa8IZfOXYI59qpmBZLUFuc0sZD3DcEZERInniuLS8i/V44gkJbkhDsmwVwnUb8ShDrUojmRlZ+NMdzcuXryoltDgybD3IPJPb8f+l95Vy4iIiNyPzbhERERELsaaPbfX7HmK8Hb1JBzZfQCoqEGlRy3vqMcdB60nf29RDZYVGxsI5m2yK/BeBbClHlhUkSNXYsv2NkyvrUAhvNi7exdWefVNxUGxptp0rID1BlXblnYWx9d9H10NanG05n8HMxbnqxld1+Zv4/g28aB0GaYtmy5K5My3nSrLxIY3cKRtvml/1rLJe/XKZvk/A949Yvs396g5XeqKF1GC7dh/sDTofiT7vnxa7LWPt2L5j+7AFDTjd997Cb9XS4mIiCKR0GEvS81pvE3Ys2u/+EoeebEPeyVIFQ9b6rdhead4oAW3HP+8sLJ8PhblyABXj7Xakhy8KoOctxHrdjfjHfUcaPNeLKotQaYIb0fqVYjsN4Kh/rzMpl24r1mlO+25KQ6BLwZhT4W5s77QFky4ZlyjLPLxcTQ+/RP0iUdacJv4GQ6tXofzcpXP3ch/rhbJwcJeoXjQazxP7Rv+/ehBTxzJd976/rICgp7EsEdERAOXoM24zTi0bSN2+qbtYkkxZs2fYw2ALmIOduhsQ4v4LzNF1XeJQDhH5LiWeiPoSR1YXi/Cm2cSbjJVi7U0iuCnPfIgtb8xoLbu3qISLSD+uxH0pM5G7PV6MC3HXr+2B12rv439Tw+iVq8gXZTkLL5oVfODJQOaCnrS+U4R/9PSMU7NR8wX9KQ96G2w7mdctvilqfeoWK4W4F2ckS/KxDyHY32AV7/3FJ5h0CMiogHgPXuaM2g90AQvspEjWygTjScNqSLcfWaEQYMWCj3INDXHnjJluL6+fvXIrzBVbOwpwbLa+XjPN+lNuqmpKWqrGNq2Dcd7k5G/7EVtKJT8+Wr5QJ1us9TgnX/z+yKM+sNfrOghcirSStUC3I2MQnGFGz611SASERENDsOeTXJKhnpEAyaberdvwx32yXaPYGwYtYPfRmMLkLVYD33THpil1sen822nxL/+kDpDNeHam4SJiIgGi2HPkJIGD7zoaD+jFiQQby/6kIPp2WrekJ2ndb4w1+aF09InNvakiecNv76X/KHPU3pj9E2vw2YWsubma507ZHl9E4eEISKiIcCwJ3lmoKpCJJ32P6E1imDjGt4OHBHnXVhRgZVqkdbRQnbI6Ai8Ly+Ud5ob0SKeu6i6CPeqZcHJjguyVuuHyPI1Zw7WLCRNFP/ZmmNlDeC50+K/wlKts0o88GQXqEfhyA4az2P1j36ApdPUIiIiogglZtiT4c7ylzPy0LFrI3YebFYbJBovVu3ehi0dIqT57rPTe9RG3/TageXb69HicN/eGnv/jBjw/dky3xS8x23fS2/geG8+SkzbR3uPn+xpqz+3VuvM45n1oJr/ThQhcg+63vwM3sJa9Vzz5LSfZpzulf+noaSKaY+IiKKToEOvxDf+BQ23CzZsS4jhV2pXYPXtReirewU/Xn9ELSQiIgqPzbhEw600z/lvMKvl3k77ODLTsPSWIvF/Mz5i0CMioiixZi8OsWYvATj81Q/J/xc9dF99/Hncpg3QXIfX/+nf0KgvJiIiihjDXhxi2CMiIqJYYTMuERERkYsx7BERERG5GMMeERERkYsx7BERERG5GMMeERERkYsx7BERERG5GMMeERERkYsx7BERERG5GMMeERERkYsx7BERERG5GMMeERERkYsx7BERERG5GMMeERERkYsx7BERERG5GMMeWdxbVIP3aufjvfIctYScjHvgh5jx3IuYseJutYSIiCg+JXjYy0BBzRLMmW9Mc5Cl1rjNynIR4KqLcK+aTzyzkPUMwxkRESWeK4pLy79UjyOSlJSsHo1ynhmoqikGmraj7ugZtTA+ZGVn40x3Ny5evKiWDJ4Me4tSGrFudzPeUcsSiwx7DyL/9Hbsf+ldtYyIiMj9ErRmrwhlcRr0iIiIiGIpMWv2cuZgTgVwaNtOdKlF8SR2NXs5eLW2AoVqzq6vaRfua/Zqj+W9esuKPdpjybzOoNUOoh53tOXhvQrjnj4v9u7ehVWWTe3HddpGUrVtaWdxfN330dWgFkdr/ncwY3G+mtF1bf42jm8TD0qXYdqy6fCfmZVvO1WWiQ1v4EjbfNP+rGWT9+qVzfJ/Brx7xPZv7lFzutQVL6IE27H/YGnQ/Uj2ffm02Gsfb8XyH92BKWjG7773En6vlhIREUUiIcNe8tSFmJXXhkMitJSZAk5X/UYc6lAzI2hkm3H1oJYZLOxpGa8DW7bXY61vmX8eniK8XV0COATJlvptWN6pLVJiEPZUmDvrC23BhGvGNcoiHx9H49M/QZ94pAW3iZ/h0Op1OC9X+dyN/OdqkRws7Mmk22s8T+0b/v3oQU8cyXfe+v6yAoKexLBHREQDl5DNuJ4UEfA8xSjEbuzctlGf6juRVbEEZeyEGoYp2AlrmxpFKMrB9Gx9fmVxCVK9jfh3U1B8p/kA9orZwjz7xd2DrtXfxv6nB1GrV5AOD87ii1Y1P1gyoKmgJ53vPAukpWOcmo+YL+hJe9DbYN3PuGzxS1PvUbFcLcC7ONMi/puY53CsD/Dq957CMwx6REQ0AInbG9fbhEPm+/U66iHzSVZukVpAjry9kJnEx+vFKfFfpgzQInblpQB9bR222kMvPm4TF1dsE/PewNu24XhvMvKXvagNhZI/Xy0fqNNtlhq8829+X4RRf/iLFT1ETkVaqVqAu5FRKK5Uw6e2GkQiIqLB4Th7PmdwVmu3y4AL7kocdqf6/TV5w8uoHfw2GkUKzVqsh75pD8xS6+PT+TYZkf0hdYZqwrU3CRMREQ1WQoa9rvZOwJNmu2lfhLxU8V+fCH36AoqEx4NMeHFKy3petPWLvJyXY6vB8+CmPHG1RSAcymFf+l7yhz5P6Y3RN70Om1nImpuvde6Q5fVNHBKGiIiGQGLW7HW0ogvZKCv3N9kmT61GkceL5qZmtcRdWvpEGvNMwk3WhDtIOXi1ugSpHY2+nrZr2zrEcUrwl0X+A91bdAMqxbXd22Tv/SI7LsharR8iy9ecOVizkDRR/GdrjpU1gOdOi/8KSyEzfTzwZBeoR+HIDhrPY/WPfoCl09QiIiKiCCXuoMpyrL35laa/mNEZN0OxDEVvXMnfm1ZnHl7Fvs7P3vNWX2pwGqLF6JHrD1XWTh1+Rg/YgffGdRy+xLFHq2TucauzD70SbtBlX0/bAKF78OrlPOXbJviQMP79+E3D0r99DDNEufvqXsGP1x9Ry4mIiMJL4LAXv4Yq7A2WFvYS+q9wxEqwYVtCDL9SuwKrby9i2CMioqixgwbRcCvNc+4EpJZ7O+3jyEzD0lvkLQfN+IhBj4iIosSavTjEmr0E4PBXPyR/s7Luq48/j9u0AZrr8Po//Rsa9cVEREQRY9iLQ/Ea9oiIiGj0YTMuERERkYsx7BERERG5GMMeERERkYtdNTEr91n1OCJjxoxVj2ioeDwenPviC1y+fFktiY2Mxz/G+NnLcWVGIS42mXoBCFdmXoP0h38bcp3Tcwe6joiIiIYHa/ZczHPbavVIBq8SXGzdDe9vvoWx19wesC5l8Vptfah1xnMNTuuM54ZaR0RERMOHNXtxKFY1e8m3rREvcBEudTcj5c616PvVN3G5+ygutdUjqXqFZd3lnlb0b16JSyf3BV1nPHd89WNB1xnPTap62HHduU//X1U6IiIiGg4ceoWIiIjIxdiMS0RERORiDHtERERELsawR0RERORiDHtERERELsawR0RERORiDHtERERELsawR0RERORiDHvxat4p7Fr/CT4T067vXlALiYiIiKKTkIMqZ5UvQVmumrFr34udB5vVTByQoe+JRnRsmo27fq6WEREREUWIf0HDpwhl8yuR3LQddUfPqGXxYfXzn+A+lGH6U6lqCREREVFk2IyrJE+9FlnoREucBT0iIiKiwWDY0xShqNgDb1M9utQSIiIiIjdg2BP0Wj0vOtpZq0dERETuwrCHDGTleYD2P6HVqxbFmWfq84GpbXh9nlpAREREFCGGvZwKFHm8aG6Kox64dj+fjOlL85DzhByK5XOsVouJiIiIwknwsJeBgpLsuK7Vkx757n+IkNeLuqWzReibjGfUciIiIqJwEjvsabV6QFd7HNfqCSXZp4GjaQx5REREFLUEDnuqVs/bhOYOtYiIiIjIZRI37Bm1eo37cVYtIiIiInKbxA17HTuxc9tGHGKtHhEREblYgnfQGA36UDUV6OlMUvNEREREkePfxo1X805h1xONSJePj/Lv4hIREdHAMOwRERERuRibcYmIiIhcjGGPiIiIyMUY9oiIiIhcjGGPiIiIyMUY9oiIiIhcjGGPiIiIyMUY9oiIiIhcjGGPiIiIyMUY9oiIiIhcjGGPiIiIyMUY9oiIiIhcjGGPiIiIyMUY9oiIiIhcjGGPiIiIyMUY9oiIiIhc7Iri0vIv1eOIJCUlq0ejXRHK5lciS81JXfUbcahDzRARERG5QIKGPT3oJTdtR93RM/qinDmYU5HNwEdERESukpjNuDkFyEInWoygJ3W0okv8l5ySoc8TERERuUAC37PnQbJHPZQ8GZB1lmf7TQGQiIiIaJRLzLDXUY9mrwdFNUtQliMXFKGsphgebxOa2YRLRERELpLAHTSA5KkLMatYr97zmu/fIyIiInKJBG3GzUBBzRIR9Lw4tG0jdu5qAoprMWf+HEvvXCIiIqLRLiHDXvLUahR5OkXQ26l1yoB3P+q27RWPs1FWXqRtQ0REROQGCRn2PCkeEfB64VXzum70WRcQERERjXoJGfa62jtF4itG2VTTMCs5FSgSGbCrvVktICIiIhr9EreDhhpE2YwDKhMREZHbJHRvXCIiIiK3S9DeuERERESJgWGPiIiIyMUY9oiIiIhcjGGPiIiIyMUY9oiIiIhcjGGPiIiIyMUY9oiIiIhcjGGPiIiIyMUY9oiIiIhcjGGPiIiIyMUY9oiIiIhcjGGPiIiIyMUY9oiIiIhcjGGPiIiIyMUY9oiIiIhcjGGPiIiIyMUY9oiIiIhcjGGPKCpZWPDwMtxXrmaJiIjiHMNeHKpYsgwrl1yn5vzk8kfnZam5oXId7ntCHN+YHMoRmnz+A1iQq2YTWO68B4bh9bIp/xpWPjwHw3L55bGe+BoqcufgUafXXFsu1qvZgdHD9bBfRyIiF2HYi0P1Gz/EscIq65en+OKsnvBHbPqwSy0YGrnzpuHUW+uw9mdy2oB9E+bxizZqemD+xsw0NT90hucXACfiHBekYd9bv0Z9+05s2gfMvMX6i0HFLdejZ6tYr+YHpgtbf/4hemYu5C8QREQDxLAXlw7jQ8uXZxYWLBZfnJ/sRLtaMlTaP/w1tvoOIr5oPzmBjOKy4akpcgUZ9OYBW9fh/Ra1yIVy51VhSkud773S/mGd9ReU8q9hofjl5MODan5QDuNQSxqmlvGXDiKigbhqYlbus+pxRMaMGase0VDqb76AgturMOloPZqmLsBfXH0Mm94/hn5trQwU92BRzY24RZsmo293gy8Iytqeu/KaUdd8Vi2R2y/U96XvIGK502/EjCsa8cHhYDWKspntQfzFPL0s14/vx7lJGTh70DiWdb2/rPryGy/uwR87tB0J+rL5GXrZ5Xl843b1vOnJaNxnnL+NbE58oFbtX5bBfO4ymDyA5Xffoq+f3I++snscrk/w62nlQXHldCSfMJfbrAt/3K2vyy27EflffGYpSyDbsU3nqZW78gI+8l178zXTH/+ZCFfjJ00Xz70WHvn6plyLW67+Am0Zc/AN0zn79yGFPl/9uBnw3HyHeN3Ufi0XPgs1tZW4UP9b0zXoQuf4CiwsleUFFtxZjQuf/H/4WFtvfw9Y9xn6PPUl7WMmo7Y8Nfh7gIiIgmLNXtwyavfmYMHsq3HMV6snv6jnIX3fBtXUug6/3JeGhUNyn9Z1mDczDceOiG9vR/JL+R5MbfKXZffE6zFFrdXkliHTt34D9vVcjWqt2bEL9U29mDLN1PQntp2afgK7ZVO1qhn6pXGOn3SqjQJVTAPeV9ut3XoCGTNv9t0nJoPEN4qP+faz9sg0LCxUKzXDeT0dlIvCb1Vl+9mHOJZ+PeZF1PlDNm/qtYdntLK/6a+RFfuoxvv6Pt/6I84UzjN1KInwfAvFq7hZrjft1ycbmem9OGULu77avXk3YyaMWj39PTKz+0Pf8dZu7cXM+6O8l6+jG2fSJ7CGmYhoABj24lj7h+9j34TrTV+cgggHU3qs9+5pX7LpU1AR029Cfyh4O1hTnDmcKdr9huqxpn0n3vat1wNexsRsbc7e9JdbNgUZLUf893iZvtzbDx4OUtMmj2m6L+zgEXH8NORqT8xCRbEIq+bm74O/tjavDtv1DEKUx399ZXOlOO2sQTZXms9HXP/d5n1Ger6mJlpnvWgPWH8Yb8sgN9P0y4l6j7y/0fQLw8GPtNBfFk2P5vZO9PheVyIiigbDXlzrQns3cKbpkL+JLSsN6O60BZ9OnOpJQ2aOmh0srZdlldZR4zVTKAiQMwEZPd1BQ5hB612sevdaOy2Y78WSwQzY939UKBAhaO1WYKH2vDC9e7Ven8Yx5plqFp1roMyG5XqGJGu+/NfHWusYe0N+vrIGDidwyAiwju8R/X096FBLREQRYdgbZdq7eoEJ2Q7NWaFDTcRk0JvdjV86Nt/ZODWt5WYjXT2UZNCrPm1uMhTlN6k/ojqAyBogHEO9+Zgy8MnnvXUMU+8PEvhk0Lt/AnYbTYSyKVSt0tlDTBZyJ6iHwpBfz5D0Js7MT4yyD32njtidb4S1bCGaX3u6Qvwi4cipNpGIiMJh2BttZDNl+vW4yzTcRu68hZhpCkrtp3stPWgrlphru/SaJOdBgcU6y/2BYWhNa8Y9eDo53EaGemwEK/+Xut6saiGb9ETp7rL1Ns6d9zV/uNOOE4S95kg2U6qHRrPolNmm+9HKb8ZMcxqN4HoOHXvN43UoM9XsacGscJrp/kNRLnPZByIm5xtFTWD7IRztuRoLzeM1yvsxC/21fxGdp9b8HL4WmYiIArE3bpwL7NEpe3v245q77/D1ppzh+Q/88uf+oNTf/Dk8lfOwUPV+HPfph+gpnqx6yBbixnljcWiTU29TvafpteKYeq9JY3LqkSkFlsV6rLNoujgZixYYPWULcKHtvAiDJ009L8+iP6MCNxV1YbepTP2p1+Iv/tx4XhF6tv4Cvz6qVpp1nLKc6y1X9eJYRpKvN3D74Wbb+jq8f6bIdE3DX0+rcL1x/cL3xlU9WG9VvWZrxqKnJQ1JxnM6GtA3uRYLVY/korZdOOwpshy7/XQyqm6dh1pbb9wDpl6r1nKEP9+UogrMSDa/RnbyNbsWc/PNPWiVlEJUVYzHcV/vXvEe2CdeA61nr368W4p78f7PTPdZRnCesld4Ufdu7Ah6LYmIKJgrikvLv1SPI5KUlKwe0ahU/jU8mvVR6HvxhpnWY3ZiHdaab+IfMv6m06AdT0Ia7PPdQnbgkfd1RtDcP2jDeSwiIvdhM26iOfjruAp68p67u2aaOmYMMb2J0NSBgAZI9byNdgiVqMlwLXuFv8+gR0Q0QKzZoxGi15DJe7OObR26WjKt1tDSA/iEtQkxaqzZIyKi0YVhj4iIiMjF2IxLRERE5GIMe0REREQuxrBHRERE5GIMe0REREQuxrBHRERE5GIMe0REREQuxrBHRERE5GIMe0REREQuxrBHRERE5GIMe0REREQuxj+XRnHv5tLXsPy6FODzTXj0039VS0cHX9kNo/AcaADuqcQHC1JR94sdeHK3WhYgBS+smYuqVDWL/pDbL31sLh6/QbyXWvfi1jVtaulA5OH1lypRGOZ4fvr2mQd2YMkr/WrZwDy5ahEWT2jAy6sasV4tiy3/NW3ZugWPbFCLo6G9dnlqRoj0eleXYONDpTg10ONGat4p7HqiEeniYc8nM1Hz47H6cqIQErhmrwhl85dgjjHVzABjbKzMxd/UvoXXbvwrNR8PRqBMk9aIoAfs334/Ht2kpjgOejJMfPDSosBpTQmWqm20L7SAbSrxpFo9usmgYD83Ma0yffHHVL8IP1tw6woxbR1MeHM7GTYdXpeX5uKFarVJLG0Q4U6+Jit2oK5PLYsbfdgkgh5EyJu+dDaDHkUsMcOeZwaq5lcC9Ruxc5uctqMZxZjFwBeXPmp4NO6DkpP784uBz7fhp3H3heFs/Ss71JfcXrSIeVkzos0H1MLIGiG1TvtCzMNi1wQ+QdbkaOcmJ3EtCiqtgXeE+F6fQdXqSW14RL124Wv14kffAeP9aUxO5fcH6CGtXRspD/fiGuTjtwx5FKWEDHtZxcXwtO/FoQ61AGfQeqAJXk8xinLUIqJBmYvJaeqhq4kv190yfKRi0lDUsow4EYxkrVvq1ahx5fkRUSJIwHv2MlBQU4uivr3YebBZLZNks24lkpu2o+7oGbVshKWuwku1VfCoWfTV4dXta/CRNiObJZ/ADHlvyif349mT2kL/c4xttflrcWT7a8BsfXuNw71jYe8vm7QGr80GtmzahMnq2BpjO3t5bSzljIC9PN7DP8OKhh1qTnf/jW9hEcTxj5eLshWrpf3Yv/1RvUYtyjJp+5usZgTrev2aTzsuytF7l/PxfNTr0xviHj3tehr7kJrEtV2Ft9Scj227oNchaLmjpd+jBad7j7T7kq5Gg/leryD3p2n3ZxWoGcHpHirffWg+1vvInO7x0p/Th80r9uIFX1n3AgvkfWj6cQ5eqx9b1gb57zOz3yNnL5Na3227R8t2L1b4MgnaNYGY/xzlonyyXJK1PCYh7vGzX6Og+xCs19x+T55xr56hzV9eG/trJ4W7lo7lst//JvXZ7tlT19e3K/v6iO4ZtJcnxP2IEd+TF+T94BN4DSTH95R5m4Dzi8LDn+Ozu4C3l07GM2oRUSTYG9enG31e9TAeyC94LaT57/fa0luF5bWrcLO2wQ78dPvPsF8EjMLZa3C/tkwEjNmmoKctk1IwQ4UUbV/b6+CdfBdeKp2r1uthYfl17SJsGMfbhBaxzWu+4xmKseiuwH09O0ms6luDFdpz9XJpIdC3v+jDh6/5VpZFLXMky1nWjVd9xxbnO1uVO+Iy6ff0acHRWC/OLXv2W/q5mXiue0KFXn27LZ/7jycD6mt3vSUmFYZl2bR5Ob2GvzF+6MsQmn/QfyytfOLa2q63tj8R9GR4M7Z9A3f59xNFuYeG+CKWX5x9J7DL98Uqv+BEWICpOfQXDchcsAiv36M2kcSX7uM3QHwpG81ycgryBR1G4YJSdIn9bG4FMqvn4iund+DlA/1IvaFUNS/LwKC+uI1jbW0Tz1uEjY+Zw6aDgnQRRPrRJfYdHdm8rZfLOF7qDVVR32dmb153pq55gQxw6ngr6kQANjc/G823W7Rr40ztR4ZZ334Cj/vkqipgg7FeTNq5zbW8vto9oFqA9W8nXx8LGby0Xx5M23SX4vGom80ju/9RL5MM4cbxdqBugihD1PdlOryfxHvc8vue8OQqsQ3M11JMAw16RIOQgGHvDLraRKrLvRYFpuqe5KnVKApW/TPsxBd4WTG8h1+z1Ba9dVgEq9RrcbPvi14GPhmEREi48a9EMHhUBIwmbLEEPZ2lNkgEoD98LkJL/lw9WIjg8ZXJsjbIXKv0r3j2kyaxznw8nQwe/n0dR6f4LzvNHxyHnSXc7sBHx8UXWeoEFGnzEZp0l37tzLVw6joV5ts6dcjjmWrgmnv8x/MHVKdwaar9kyHUUuPnUG7xujx4XYr22pmD8kcNq/z7iabcMZOCqoeMm+T1GhfLF9g9pahKFaHDXBuyuxF/EF/0hdf6v1SX5sg3Vh9ODiDcBWht8IXE1NQ+/MFWA7T0sVIUyposc5k27NXCR2pxXvBgIWudZJg17T9yttqlDQ2oE7+IlFaFCZcDsPSxKnHN5fHMNXUiAK2JMlhor53Yz4bQz3thjS2Ub/hcC4SZOca55eHOG1LQd6AuxHUTwbI6L2CbF7aK0OTQbC7DpKWDRtSBUC9Ty1bbNZK3IRRMjuqeU8f3U4AUTJog/uvuj1m4W11xHDiaxlo9ilpC1uydPfo+9ogcU1Tj741bhj+hOW5q9ooxQXwPajVIvlohMWnNkSnaOj8RylTtmmzytAY2v85ea7OfOaDI/z1owmemQKE5eVD8ALcfrx/dll9fxfFFkLE3K442N6flin9lraXpeotJaxpNy7fWbvYet4RpPeA5X/dQZG2q+ViWJnRJe136ceTz4Nc2qnLHjAwVspZC763orz3T6SFO1mqZvpjFpDULTkjxfUGvf6VBvL+M7QbXs7LvtOlN2dcD8w0aUtFEcW1bPw9osnzhT+LLOjXd+ouB7JBhlFs13w6+U4TUj5Pd4nATLR+omNDOz1K7OjDaaxfJfgJ6ZZubh4XqFGSK822os4Zuq1RkicMFhDitSTcFWQ7NyL7asYHUkGllkrXApmPJSWvSje6e02DvJysjSKr30yA6+ax+/hN8tv4TVNXPxvSnYv/+IfdL2GZcGfj0nrj6VHdUfNw9Ynl/nNyvJ8gaHX+tkH8KaA7VQoEuqhq2vu6AL8XEJu+ZC7zejzrUlA6Wfo+dvNfPf5xXD4f6Ygxl+MptJb7MNsimqzx8JaAptM3UVBbsC9rfK1TWeBm1hZam3pFg6Y3rcN/igKmantHOuMfO3mtZrY5WQIhTU+yuu5Wvl7llGtjtA2EZw7jIJt7UUjyuBczoe64/85QIeUtno65ChL7XTuERtZwoUrxnT0meei2yvE1o9vXQHUlNWu2ZJ918834Q8t6v2bLJVwTDT5rgue5R0/1cwRWliy9no4ZKhD4vijHdfo/XpHLx27q9Js+dPuptF//mYvKw/NKseuqGG5ZFe13sNatWw1tuB6p51ly7t75DnlQ0NSXG/VZ6TaG5qTdWmk+LIO3QVPekPJZDTeDQ0GuyLLWQMaKdn72GcqDs+1E1Yj7qHsa6EPfG6ey1c/aw24cucSmGoqbT0e5+nBL/+ZuaB8lUS63RrksQ4nOyxAh94pej8gH+QvNMfT6Qdg4lap4oUgx7Qlb5EswSuar5wH6cVctG1g789FCTdnO/uRNFIH+HjDdkM+rJVXpngVqjw4YzedO/Vqt0WN3n1bcDR+SXrK+jh/RXeFb2AB3QOHE78Hmv+G9yechyDK8wZTq5Se/YEebaxYYqi6mZNaAntGTcezfb1LFDuLl0jX9+WMvtTGsKNdfuqXvTqh6KtgYjMAzZQ4y9Z2qk1ted0L5kF5tvxL+nUmtabhFfxNE0Bw60TE+ukk2dbQH3E8aCr0nc0lSYghdWRdd0aFwn32tp7ykrtfaIbcxBzt7LV9jdhgb5M0U8Xz++7Phh77nqb+YM20kmJtrwG63TjrUjyUDozf+luNPYj1OvYycD7uxDNDiJ+efS5KDKNcX+4Tja7cOwxImAoTkEX2cEEcbuukurebMO+2Esl017q/CW49Ajap2aM9iH7wgY4kMrT67DMCNOZC9R0/AsQrTDgdjL4+cvv7ZNmrX3sR6cZM9i+zmGK1Pgesm/jVofajgVn3DbGq+TIl/XQxOwXOvlay23PQgGvC5hyx2ZoKHFPFSE9uVvG3rF+CKXvQ59zbROX+6iTKZhKcIP7yHZ9iObDv80WfWo9A+9YgzLYR4WBdr5mIZDCQgltg4UxrGCDrVhCFcmwSkkBRlSxBKSDKbhQJyuk042lZs7G9ivue38nMqkWK67JbjIYzSIj/5clDb5t7G/V1q27kBXtXUb+/nJ1/43OeJ5xSes18EpKFmulfU1dhbZtZQc3+embYKHd+v1tGynlbcfd4oy+IcsciqT/T0XJQ69QgPEv43rdirsdUb5xU9ERHGGYY8GiM24REREo0FTEnpwHLd/94JaQBQZhj0iIqLR4MNM1GzKR/rsfdpQLLsY+ihCbMYlIiIicjHW7BERERG5GMMeERERkYsx7BERERG52FUTs3KfVY8jMmbMWPWIiBJdxuMfY/zs5bgyoxAXm7appborM69B+sO/DbnO6bkDXSfFojznPlmnluqGqqzxVp54fC3t505EA8OaPSKKmOe21eqR/LIuwcXW3fD+5lsYe83tAetSFq/V1odaZzzX4LTOeG6odVKsyhOurJGWJ1xZ5fpwZR3O8oQrq1wfrqxyvWEwZTXKQ0SxwZo9IopY8m1rxA+NIlzqbkbKnWvR96tv4nL3UVxqq0dS9QrLuss9rejfvBKXTu4Lus547vjqx4KuM56bVPVw0HWxLI/9HJ2OeaFpa8iyyueOySsPWVb53C8+fiVkWYezPPH4WuLLS+qdR0SDwaFX4lBWdjbOdHfj4sWLagkRERHRwLAZl4iIiMjFGPaIiIiIXIxhj4iIiMjFGPaIiIiIXIxhj4iIiMjFGPaIiMg1xj3wQ8x4ZhnGqXkiYtgjIiIicjWGvYSUg1dr5+PtIo+aH7h7i2rwXm0FVqp5orhQXYKNLy3C6/eoeaK4cDfyn3sR0x6YpeYHYP53MEPswzcF1GLqx5jx3A+RVaoWDROtVvW57yBVzVP8cG/Yy5mDOfOXYE7NDDgPA52BghqxXm6jTXOQpdZQfFhZPl8ESesUi4DqRtq1qi7CvWp+ZOXhdRG0PnCYfOFLhTHr+rl4oVqtj2NLH5trK7eYVuWptWRxT+WoeV1HhdJlmLY4H12bv439T6tp9TqcV6uJgnFh2CtCmQxvub1o9qpFAWTQq0VR317s3LZRmw61Z4vnMfDFnY563LF9mz7VdyC1uIaBL+614ZEVW3CrmF4+0A/0NeBlNf/IBrWJph91v9CXa9PWPlQ9tAgbH0tR6+OY6Zxu/UUD+gpEqGHgoyE27sap8PR+ho5taoGjd3FcC4LfR1eDWkQJz2VhT4a4SqBeBLiDzWpZoOSp1SjydOKQaZuug3vRhWwUTs1QSyjudDZirwjwqamjIAxQ9Dbs1cJh6g1Vo6smaHcj/tAq/p+QgqX6EqIhMS6bf66UBsbFfxtX1d6hCXt27cdZtVTKKl+CMuy1BkLZ7FuRDXgDtx9uQ/G3cWUz36IcNaP0Ne3CfabqT3n/3bJiU62ZtxHrdjfjHTWr8RTh7eoS2z0ZHdiyvR5r1Zx+T2AFCtWc2BH27t6FVZaaVg/WVNeg0lxJZzueVmbU446DHWqJek6/eZlgL5NTuZ2OJ7TUb8PyTvFA7eOUMa/RzyPTdp3s19K3D0W7jnknRRm8WGS6DvbrHbbc2RV4rwLi2rZhuuN+7NfZKuB42v5MBZe1pubraJD3BC3OFye2HftfelctHBjZ5Pl48Qm8vKoR69UyjWzGfehqNPxiB57crZZJ2vJS4MAOLHmlX18mmwIXmGvN2rB5xV68oOZ0KXhhzVxU2W4Watlqrk0M3Ma6XqeV+QbzLxSyBtJfTqdzenLVIiye0GA7T/vxrPsxaM8tUDNKn+/81T669+LWNW36SsHxeOra+Q4nax8t5ZHN6+KXYXHOv8kxn2Pg9bSXyXKdfK9dnXhtTOfX6i+j0zn52MsVttzRkfeNlZUexaEBNm+mrngRJRM/szxf2+esU2h8+ifokwu0zwjEfAMynqv1tQh597yBI2/uUXM6bX+2D2nAdsZnzhDks+dUNj95r56/LMBxf3kNshl42VScXid+yjzwIPLT1HKn40VSJm1/08VPVzOH4+JWLP/RHZiCZvzuey/h92opDZ8E7KCRgWTxU8Xb363mZU3fQswp6cWhJvHF6EmzvXFHOxlyRDhJEUHCaA4VwaxFrfURQeAvccDfZCq38ZRgWbkpHMiwIH4wy0BkbLdOXjMzGWBUQPJvA1SKMrwqsrRhZbkIXjCXSUwBAc3q3qIbtLDW0mYKKFqZJuHIbv9+tvSLclvuX5OhSIVE37EabT+MIqGupQygpv1kVljPTSOvnbgOMK6V1gR9A9YYb66Iyi3liMAorrnaTl5v/346sNx4rrwkMiyqeTnZg7weHI31u7A3RZTB/PrGg939OCX+S52ovvplELj2c39T74odqOvLw+I1JaZaNBliVCAyN62qtTqHbba2oXCBrdlYBMvHb4C1eVkc0x7QLMRzZLDpa2qzBau5KG3aYTqebKY2378mg5wKbb5j7Q38bEZCBmItgBn72YLN3aV43HKddPKctbCqbaeup68JWpVJ/DLsK7e4lpniOdbOLinauWTtVtuIa4mCSt82L6wxLbc315uDXBTljj/5KHmuBl+s0++dO7TnLDyz7jV1ipiFrGdUODPur3t6O7rUWoPWqUELjsY2b+D4xFrMWHG3voGpQ4YWGtOmo8zonCGm/Pn6Zv7mW70swSUjf9mDGL9DHW/zcfGmqDXtJ4IySbJcIuidNd0/GPq4NJISMOxNQKopzclavlkpf8LOXfthiy3ukF0iApIXe+tDByl01ltrgUSQ+EwGiBSPCh8i6JSIYNBRb6nFsltZXIJUETr+3bSvd5oPaM2vhXlGsPAgT36/9ntDl0nKEYFEdc5YVtyvhRX/8fUy9TUdsNQarm0SQc4zCTep1/neohIUytpHp1qsaGjX0rYfbzN2iln/uRlkbaaprN5eET48yNTKFFm5ddZa0Xc6Tpr2EykRGIs9aKk31756sapRFDwnL7An9baf6D+8B1mrFxMiTC8x1WjJ4LCrqV+kwXQUqSVLHysVr28bNlu2s3LcZsNebG4VuyrO8wWLpTkyZPbhZKhwJ6WKQGJ0zliQqoUZX02koB2vrwFvmJZhQ4MIVikorVLh8p5SVKWKILRh4LVYOhHQqvPQd6DOEkpf2CoCb+rVqLE3icsaOF/g6sdJ+Xuv0QStlcl2nVQzdeG11nsSLbV9Gz7XQmpmjrlGNJwoyx13zuL4Ov99cec/PSo+VckYb9Rozp+P/DSxzZuhahjvRs6sZHRtNteE7UHXDhnAVG2n8XkUU6O8yL3m8PhtHA95/54z2cHD97xtDVoATc4zeghHUCYZZOfqtf+RHf8DvPq9p/AMa/VGTAKGvW70aV+cE7TeuIX9263NueJL2fT9O+rdmyJ++HpP4uOwJ6XXWpl7vlqbfVO0gGGpVQugh7g+sY01xHnxcZsogC84GkFDBblQvUiNDhr18rg5mGPpnKGXSXbaMJdb1j6mmgJRoUz3HW2moDMw2rWUwcl8LDFp18l3boZ+yFP2EaHwPl9QjazcMeMR+xT/FVaYjiUnrUk3BXmxPl4M9J32f83IJkFzz1drEytQNFHMt35ua9a1CrbNC38SocYUHNe/0iBCSx4Wa8cK0YvU6KCh1SCmoMrSzKyOZw6Ean+yydOotdSCZd8J7AoXLMNKRZbc7w22XsJa02gKsuxNxKZrK2m1cCr86WHXOH//pDXJxvyexOjKPdqMyxOfut6j6G1QC5yU5mmjRWQt9tfUaZPWfJqJpGEeOkUTUZkKMD5N3useB78QUkQSMOydwVnxs85TXInUxo2oO3pGLRfLxBd2YpJBT97PJu+98zcDak2DQ6VThTjZnKo1ecoAEmK8PrG9LE9qcUnANvLeNKPM5ilUDeTAWa+RbwrTBO1keMstgrqp+d0/2e+lHGHVIgiL/0516DVi+r1f1mZArYfvkDF6EsvmTdlUqQeQoOP1iffvG7I8BaWBwdAIhPYpRA3kYMj7/AKOJSb7PYnhyXv4AvdjaX6NodiVe/SyDKXim0a2N208lokGLgHDHuDtl99uneiwhJki5OSKdW3NI9o5Y0h40qw38auaHj+9pqmvqTFs7VemLRBrtWY+XrSJ773UvBxbLZcHN8nqI6dmW1Xjpd9Dl4Pp9nvfTNbKZk5L7V4/TomXMqLeufaaN3FN9PqVyL3TL0NGLGrCoih3LHi92n1w9tcuHj25QNbqtOGg9kWfgkkTxH+tDaHvmZPstU4F6ZbXt/m0DGST8aSaNzwpmyb7ehDYd79fBE0ZOmToE+9zWxOmmV4baK3d045nqjEMyr6NCrvR6UOXKKPvPsdBWN8ha/1SMWlYmlBjV+64lZZuHfBY1Zr5NLRp3zf+JtQ4EEWZ7Nuwt3D8Ssiwd/bon7RhVsrK/T9ms8orkSUCYIupps8N9Hu8TAHJsTdtYPgI7L2r38Nnrllz6uG7Vjbzekrwl6bmVr1jhRd7m0JUFWrhS4SSULVM3g4ckeX0lcHfHBxq7D2jTIuMIGnvlSoFBCKHnq7a0C8eVFYP9i+GRFbuaLTIexMC7vczdGCL1rGjJrAjiRPjhnDzzdjDwOjB2bLV6Blqu59MCOwpazTFluJOo/YtoPeuCDF1J8TnwNwRQVAdK1rELxrBa6z0pkZ706eVCKdy6BVT7Z6vOThERwOjTF8xOojIzijmXqmawGsQ2NNVBNPd4hoUVA5+jEJ1X2HVQ5UBwXhAWnvEOZruU7SIYblj6HyniDqmkKb3xI0+xOj38OVjkvHXMhx7rr6LDq1jx4OWDhIjK5IyvYszLeJHzqz5vverU69jP9kb93ms/tEPsHSaWkTDynVDr8ietbPMw4eYdNVvxCFf3pCDL8uAp8TBkCuGmA+9Ygk3shmyEXnVNZjWZhqawx4CO+qxrq9EDSFiNFEazb3ajNYMeV9/ierlabr5PyBQymOGGppFChyeJXDoFUGdi2W4E8fwZh3GxDqsjCyPPpyJ7C3rvB9ZngNAhe062a6BwVwe/ViyM4n5nB2EK7e2PsV6XdS1tQ4Ro7OHb/vQKwFD60hOw68YQy4MeOgVfYgPp5/7vpv6nYKN45Abtn3JbXan4/EFsAwXYgmB2n76cacaZsTfHGgvV+BQKE5DhviHQdE5DiejzscyZIzjdbAd0xJM5Tp9OBPZizfYfmR53kBVYBkcQq71mur7ybSdTyA13Is1dQa8dqccrq3jvu3lsr/OYcsdncEOvaL3orUNS3KwVPVONQ+9kmnpoGGEOdk71ddpwfgsaeSQJNuQJPY9scE69IpjoHT4/IUcesUxTOp8Q704lVEN2ZJsGw4mfJms10k7Rtt863XymYalf/sYZoht++pewY/XH1HLabi4eJy90WsoxtkjmxChiWjkRBrIKJjBhz0aErUrsPr2Ioa9EZKQzbhEREQ0XKZh6S3ytqlmfMSgNyIY9oiIiGhIfPVxea/eY5iBOrzOcfZGDJtx4xCbcYmIiChWWLNHRERE5GIMe0REREQuxrBHRERE5GJXTczKfVY9jsiYMWPVIxoqHo8H5774ApcvX1ZLKOPxjzF+9nJcmVGIi03Wv7x9ZeY1SH/4tyHXOT13oOukWJTn3Cfr1FLdUJU1kvLYy0Lh8T058LIOtDxENDCs2aO45LlttXokf/iX4GLrbnh/8y2Mveb2gHUpi9dq60OtM55rcFpnPDfUOilW5QlX1kjLE66scn24slJ49msX7prL9aHWGc81OK0znhtqnRSr8oQra6TlCVdWuT5cWeV6IooN1uzFIdbsAcm3rRFvziJc6m5Gyp1r0ferb+Jy91FcaqtHUvUKy7rLPa3o37wSl07uC7rOeO746seCrjOem1T1cNB1sSyP/RydjnmhaWvIssrnjskrD1lW+dwvPn4lZFnx5SV15SkYvif1/Q7Xe1I+l4hig0OvxCEOvUJERESxwmZcIiIiIhdj2CMiIiJyMYY9IiIiIhdj2CMiIiJyMYY9IiIiIhdj2CMiIhoV7kb+cy8if76aJYoQwx4RERGRizHs0aDcW1SD92orsFLNEyWipY/NxQcvVeJJNU+UiMY98EPMeO47SFXz0ZuFrGdeFPvwT/ZaTP0YYt2Ku9WS4aLXqk57YJaaH13cG/Zy5mDO/CWYUzMDwYeBLkKZ3Gb+QhR41CJKUDl4tXa+CK7mqQZr+L5w4MGaanF9ynPU/AirLsHGlxaJsGWf5uKFarUNUvDCGqdtFuH1e9QmJOTh9YBrZL6O5KfeU6vy1DwNVuqKB5GPz3Do6W9jv5qOW/90Mg2QC8OeCnC5vWj2qkUOssplyCtAX1OIjSjhtNRvwx3b9WlLhweV1Qx8cW93I5as2IJbxbS5Vcy37tUe37piB560/9lf3zr/9MgGtY58Wrb6r8/m1hRUPcTAR0PtbmQUAl071uG8WuLk/Jvf14PgS++qJRQJl4W9DBTUVAL1G7HzYLNaFih56kKUYS92btuJLrWMyG5tUyP64EEmwx4lsBe2NojPQQqyCtQCoqFQmheiFY4Gy8V/G1cGv1oUoQl7du3HWbXUTga/WcVA86730RonlXxD8bdxV5bPxyJTq5uswVreqWa0ZrkaTGvbhX/HDVhWbKSbDmzZXo+1ak7jKcLb1SW2ezLs2+n7q/SFJC/27t6FVb7r6z/eff0leK/CKJh9OyG7wrRe6KjHHQc71Iyf9fwc9qM101ZA/OKo2LfR18N8XdS5nrJcq3DXUrGXW/I2Yt3uZrwjHmr7SPHPS/L+x2XF/SN2LbUyQSxry3Pej+Nr72e/DhFdJ0Heg1M2KxnePW/gyJt71NKBeXLVIiwWv8jduqZNLTHIJre5qOp2WmfQtylt2oE3UIXHb0hRy9uwecVevKDmNLLp+KFS27Wwb6eO6duoH3W/MNc2+o+3pKMUHywwmgPt2wn3VJrWC7KG0uE8tPP3hTKH/WjNtJWmz4F9G309tppqPNW5njIvE6zH0msDA2pJ7eWW+hrw8qpGrBcPtX1M8M9L8v7Hx2/oG7Fr6XsP/Wmy834cX3s/+3WI6DpFTN43VgtsHmDzZukyTFs2HWctz9f3mez7/Mn75h7ExIY30IJ7tc+m7jgan/6JCP4man/W34ft2+n7y09Ts+Lb+Pi676OrQc0aHMvmZ/ycMDj9vEhd8SJKsB37D5ZixuJ8tdTpeJGVSduf/8OicTpuydIf4JGqNPTVvYIfrz+ilsYXdtBwPRkG1Je4ap68Y3cjMivm49VstYmSWizCRmqj2q5efNBzsMh8X5YMCyr8GPtaF9AMLkOTHj58x6vvd2wOlcd7T+SrLWo7rdm0okj8eNFpnT9M6+/Yvgt7U0QZLPeKqfPLkYHT2O4AUOzfjxZSRJDLbPKXaV0TRJkCr4Gf2G+FDDYd+MwXUCK7lnq5U0RIMsojz02tjMpwX0shRywr6cU6YxuvaT/eZtznWy7mZVj07c8c5CJ/z8Wj1BtE2JjYoJox94rPQR4Wm+/LkmFBhR+jqfPlA/1qpUGGJj18GNvcurXPsTlUHu+DBeL7W22nNZveU4Klar3W+cO0/tYVO1A3QZTBcq+YDDsyVMjAaWxXByzw70e/t7ESmQf8ZXpZfFSqHgp136LY7z0y2LThoC+gqGPJQGQc6xcNyFxg3Y9e7lQRkozyqGb2qA33tRQKxLLqHrxsbNNn2o/vtgG5XMzbbg3wB7nIrlO88sx6EGXZu9S9c9vRhXyUmDtFzP8OZqhwZtxfd2iPvVpFBkk9OBrb7N98CvnLfoisUrne1CFDhcasxf7OGTOeWYZxcjPB13yrlSWEwlrMmNuj7vt7A8d7k5H/gH8/4csk6eUqmWi+fzDMceMcw57bZZeg0iOCkLk2THxp7xSzhXm2L3pLTY8IOfJhikcFBvEFXiK2F9s41c4Y7i0qQaG3Ef9uvmGys1ELDdNybAlF1nSZarFa+sRzPGmq1kEEzWIPWurNtVxerGoUhcrJ8/X+vbfoBnF+svbJtt1Bf43ZymIR2mxleqf5gBZY7NegUAQSo3NGZb8MK6b9RnQt9XL3NR2w1SxGb7ivpUbux1fb6MXHbeb9RCia95xg/BAfbK1eROSXeLjOB5aaHhFyZECZkKICg/gCrxbBQGwTqnZm6WOlKOxrwBuvmELghgYtNJRWGTWGiqzpMtViNZ8Wz0lNR5E2l4c7b0hBy1ZzLVc/ntwtylcw2df7d+ljVahKlbVPtu3W+GvMnlwgQputTOtfqdMCS+G11rBTKAKJcX202lBzLZsIf1WpIlSaaxZFAPqDuE7+/ejl7jtQZ61VG4DhvpYauR9fbWM/djWZ9xOhiK5THGvZbrov7l2caRH/TcxToUmEobn52jahahjHPVCDrN7P0GL+bG/bpgWwiTfKXq170LVahal1n4mfOECXKTzuXx36/j1H4niHfM/bg94GEUDT0n1hL3yZhPnzkZ92FsffjOz4jev/Ac9876m4rdWTGPZc7t4U+cNQfNnbeppqzWu+IBeJFO3etZY20xe4g8JUsZGnBMssx9ObIVNTbT+Y+72+QCa90yxrsFQg8XiQKf7zhy81ac2LKchTWUc7nvckPg4arDzIE4ftE+U2H8sXZGzXwOigodXE5ZRYatAiupZaub040hG0QBEb7msZK7F7zw0BWy3MrU6dOEJKRVaqeJ/8yfQF7qBoorgGqaV43BYsZTNk6kRbA2B3vy+QSetfkTVYKpBUi8+d+M8fvtSkNS+mYpIKqtrx+k5gV9BzScGkCWKTpjbLsXxBxhdmdUYHDa0mrqDUEoiX5sjy52GxuTxi0poqjf1o5e5HQ50poA3QcF/LWInoOo1aBRifJoLZwdCdJMZlJ4ugNR1lRk2dNunNp55sU9v2MIqkTOPyxDul96gIitqsKzDsJQRzE6dpMt0vFlNaLZPD8cw1PREywpd1st+PF3trD8pmbA8qi2VCMeO1jMwwX6d4pNUymYOlmhzutQvH3DvWP0UbVKP3whrZjJ2CKvM9bhpzc7FpMt17F1Oj9loO83WKR7KmzaipM08j2Zs2Hss0xBj2XO6dfvmbdexqbzJTrDvSap9MrM2Hg+D14pT4z348u/DH86JNtsDk5dhqlDy4SV4UW42Ynwgr8n5EU+1e5NfS3oNXr12M1nBfy1iJ9XsuHmXmWF9QrfbJxNp8OAi7+/XXznY8u/DH68fJbrFJcZ6tRikFNcVi37YaMb82/Ebej2iq3VvfIW9Ui6QmzN6DV69djNZwX8tYifw6jV7JedYBhrVaM5PzndYm1HgQcZns24zy3sIMe26n7vGqrB7sX7nQ7+FLLS7x7cfe21J6p7lR79hRbeogMSB62JIdD0Ld1O98PA/WlPvn18qmZ08J/rLInz589/o1Ba8he6fjpDb0iq92L5Jr6e3AEZHRCkuM48vOCubetDp7kNN74lo3Gu5rGTk9QAfc72eI8j1njIg/Okam1+/hS72h1HePl723pbT+lQbx2uVh8RpTB4kB0cNW6g1zQ97U73y8FLywyj//gmx6Ti3Fg4/5w47vXr+twWvI1ted0IZe8dXuqfvlqh4K8RdDdrehQd4LWG0cX3ZWMPem1dmDnN4T1xrGhvtaRk4P0AH3+xkiuU7DraFNG5nCH9L0nrhZai5y+j18nlnzRZzVOfVcPf/mLr1jh6mjxUiLpEznPz0qfsrlY5LxM8mx17Gf7I27+kfPY/Xjt6ol8cd1Q6/oQ6k4vyRd9RtxSH63e2agqqbY+YVr3xtyjL7hEPuhV4IEDt9QGGq97JBgah4MHB7Eup++JmO4D9nL03zzv32YE8k8FIjz8Zw4haDA4Vfs5+cw7EjAsCGymTGwzJahVwQ90Jq3DXctJev5y+ukDWmTdzLotdTOSRvyZOSuZeDrbTzHPhyMFHgdrNcgkuukG/TQK0GHwjAPu+EcNiT/UBhqG9vwLIHDg1j31XfAGO5D9vI03/xvH+ZEcihTyOFgdE4hyD5kSOA5mo+lBFwr2cwYWGbL0CuCHmjN2zpfT+uwItbzl9dJG9Km+ETQa6mdkzbkychdy8DX23iOfTgYKfA6WK9BJNcpGoMcekWSvWgtw5KIT/sDeu9U89Ar+afNHTRUmJO9U32dH6zDl2if37b5Yt+wDb3iFCgdhjoJM/SKU5jU+Yd6CSyj8fPlVPRlslwneYxtSFJD0gT8nKpdgdW3y19ZmvG7772E3+tL44qLx9kbvYZinD0aWU5BiijROAUpikYMwh4NgWlY+rePYUZa/IY9NuMSERERDVTtHSLoAX1178Vl0JMY9oiIiIiiNe3r+K68V+/2Ihz7bXyPs8dm3DjEZlwiIiKKFdbsEREREbkYwx4RERGRizHsEREREbnYVROzcp9VjyMyZsxY9YiGisfjwbkvvsDly5fVktjIePxjjJ+9HFdmFOJik7Xf/pWZ1yD94d+GXOf03IGuk2JRnnOfrFNLdUNV1ngrj1tey5HAz8HAyxpv5eHngCgyDHtxKFZhz3Pbalxo1H+oXJlZgqsyivDFjueQVP1/ixe+yLIuZfFPcanjM4wp+krQdcZzz336/wZdZzw31DrjubEoz/iblocsa6TlSb3n5yHLKp979oP/GrKsw1keN7yWw4Wfg8jLw8/BwMs60PIQDQeGvTgUq7CXfNsa7YfKpe5mpNy5Fn2/+iYudx/FpbZ68cNohWXd5Z5W9G9eiUsn9wVdZzx3fPVjQdcZz02qejjouliWx36OTse80LQ1ZFnlc8fklYcsq3zuFx+/ErKsw1me0f5aDucXHT8H+n75OQhenkT4HFBi49ArcYhDrxAREVGssIMGERERkYsx7BERERG5GMMeERERkYsx7BERERG5GMMeERERkYsx7BERDaHUFS9ixoq71RwR0fBj2CMiIiJyMYY9sri3qAbv1c7He+U5akmi8WBNtTh/cQ1ezVaLXGTpY3PxwUuL8MGqPLUk0aTghTXi/MU1eP0etSiRlS7DtOdeRP58NT8A4x74IWaIffgmey3m/O/oy59ZhnFq0fC4G/niuNMemKXmiRKXe8NezhzMmb8Ec2pmwHEYaGO9MQXbjkZWdoUIXjVY41HziaS6BBtlMAuY5uKFarWNxh9gjGnUBJl7Kh3Oh0YNEeTKRJY6vu7b2P+0ml56V60konjhwr+gUYSy+ZXIam9Cc2qxmGvCnl37cVat1XhmoKomDx273kerVy4wnrMXOw82a5uMJP4FDRMZ9ipSsHf3LqzSXqvE9OSqRViMvbh1TZtaYsjD6y9VorDVuu7JVXMxaesOPLlbLYhXMuwtSEXdL0ZBWQdI3rNXgu3xGYJkzd6y6Ti7+ds4PoC/3BXX56bV7NUiec8bOPLmHrWMKDG5rGYvAwU1lUD9xtChzbsfdduMoCc1o7lJzOQWIEstIRoV7pmMQvSjbqs1BL6wxr3hieLFLCRNVA+JKK65+G/jyuBX61yz5yB56kLMKhaxz1fbN3JiX7Mn70OrQaW5KdTbiHW7m/GOmpX36i0r9m/Q17QL9zUHXgj7dj4d9bjjYIeqiQO2bG/D9NoKEUR0gfsLLJN5m5Xl87Eo2G2DtrLrxzRv3CGOX4+1ag7IwauiLKjfhi0p5vKbt7OXxxukNjGw3C1iv8s71YyJvJepbFYyvDGoWQhas6fVjOWhZesWPLJBLXMg79V7/IYUNSeu9YEdWPJKv5rzs2/nY9QcascDNq/4HOWyRlGtDtyfbFqei6pUNSuYt9HOp0B7GKivAS+vasR6NWuco1+bOP5evKDmjNpNiGvwmxxz+c3b2csjAnKQ2sSAa2CrNY3W4Gq/ZiHrmQeRf9r6fG2fEz/DodXrcN6Yl8c4WIoZi/P1jcRPvePrvo+uBjWrUftLU7NKl61mT9uf8eIK9vU657L5yHv1fGURWhy207YBGp9uQMZztb5ftp0+M5GUyb6N5LSvkqU/wCNVaeirewU/Xn9ELSVyL3bQUDwp8tvbi7MjHPSGwspyEU4gAtL2bbjDmMxhSXineZdaV48WtcxOD3oQIcjYj9rWCHo+OVhUW4JTart1TV6kFt9gue9uZfkNWvjylae+Q2xT4+sUsfagf7kevEzbmsvuKcLbeW3+ddt3Ya9XHL+6CPeqTQyFFfOxLO+kug5qO19HFC9WGcfQjulEhkZxLfvF+RrHE9vK/b5dZDq54bShAXV94twWLMIHa0qwVC22W//KDty6YouY9gZ9ffWQAxGC5HambQPCTh4Wv1SKLrXdywf6kXpDleW+uydXVYmyGfsR09Y2sc1c372EL6zxL9eDl2lbc9CT9y1e+7l/3Yod4nzF8R3OVV6Dx4tP4GXzdr6OKP2iTGoftlpQMxlCH7+hT4RE43jiGhSIsBni2saNwlrMmNuDQ9q9c2/geG8y8h8wd4qQzZoqnBn31637TLzzzWSAU8HRtE3yYn8nDn+HDBUa5XGNzhnP/RBZpfp22PYTtQ9ZFrXMUT5KnqvBF+q+v0N7zsIz617/fiIok28bGYCNbZ7eji61lijRMexJOXNQliu+7pvqXfjDwYM8WUnR77WEu4EoTBWBxnsSH/u+HTrwmcxFIihbg5W1VuydjpPoE+XINOWhtQdttWadbVqwyNRCdxS8zbjPEjS9+LhN7NiT5qt18pGh1BcUvWiTlUwBZQ/u3qISsc8ObDEfr7MeW8Rsal5OwH7Ov/l97UtnaO8X0kOMDFxILcXjjh04IlM0UbxR+k5gl6+2qw0HW8V/E1JsQcdaK7a+7oR4fVOQZaqpC2hG3vC5/vrmONQahrK7EUssQbMfu5rkuaajSC3xkaHUFxT7cbJb/BdQ9hBEsPyKOIeWreZawzY8IsNh6tWoifdOJL3+mj5gD3obzgJp6b6wN+6BGmThOBpD1TDOny8CnG2bhnU4KV68rHK9l63xvvaFOFlj5wtY9prESFhrIM9/elR8OpMx3ng/RVAmfRuxnzeN8w+tcf0/4JnvPcVaPUoYDHuys0ZFtvjub8Kho2fUQjfxYlWjSCM5slfrfLznUOMVqZY+GaIm4SZfHsvB9ByRD9o6og+SskZOlsc3+Zt8oyWbfP37me/czCz09ZmbGVXtoa2GMxQt7Ha0mZqHdWvF+TuGy2FkrblLQdVD0ffIbT4tQ5Q51OShXHzh9jW1+WvaIhXQk9jf5BstWdtm7mns2Mws9J3uU490Wu2huZYwnIJ0pMqAa28O14KqNcyORuOyk8WHuEEE8+DG5WWKf2VNm1FTp09a0+jEvGEeOkUXSZm0bXqPioArn0FEdokd9rReucXwoBOHIrivb9TqVM2OuxvR5ynBMhWuVqrVkXqnX4YlDyrVOHRaQOuod7y3LyQZ9EQYSJU1bUZzaIjm41D0e/uszbyy2ThxteERrQlThFNxjaNpelzfIWOAHhR9Aa11r+O9fSHJoPdQKVJlTZu5OVStjoZ+b5+1mVerxaQhdByNvpo60+SrNRwJ8VgmotEjgcNeEcqMoLdtZ2Lc2yGbPI3QJ2vloho02IM1JTlaJwp/QBOTpQk1Qp40pMqm3qYBPNdCNVF3NDp0pIg9rWYzJy8gJK/MyxHXtndAYSZ+pOCF6jytE4U/oIlpIB0TtBqywB7C0UvBpAniv9aG4elZ3NojPhd5KLfXiKoez12ySXu0s9fOidfKXA9+vu2U+DcTSb775UZexGUyNVlrSvM4diqRkqBhTx+iJSuRgp6ZClunBhCQUlOjvOfKiQhG1nv49N6yjs18attpOU5Ns4H33QXtLRwD+r2H5k4dQnaF1mu4pTGwOdi4kX0oR/CXnSoCmmvvKdV6nbaIUB9t82vqRFP32YHSQpO52VONBajmLNS2pVVO76vA++6C9haOhd1taNA6u1TiSbVIK7vsCTxcgTPAHpw7Lf4zhTSnHqeR6Dt4XASi6cgxOjXYe8tK27bpHTuWfUf8jIgTEZRJv88vH5OMz5oaPzDYTwLZG3f1j57H6sdvVUuI3M11Q6/oQ6g4f8S76jfiUEfobRAHAyvHdugVpyAVOKxI8KFOTMOTGM2v2nIz0zZOgyCr550yDVFiD2Ut9btwqqQG09ochnyxD61iGXrFdn5yXWMalmnDvxjDqujbZAYZTkYXInBaehvbtwu8loZBD71iNIeqWT9rB4nAYUys66XgQ52YhicJejzTNk6DIKvnnTIN/2IPZS1bd6Crei5KmxyGfLEPrWIZesUWFOW63el4XBv+xehIoW+TGWQ4GV2owGntbWy/VsGGqYmUFs4GNfCwPjiweViSFvHrTVnpUevQK6ahWCT9/XcKjU//RARq8zL1M1zr0NGGHLFvWIYxiWx4lnBDr1iOZWHqkKEFzkzrEDGOAz1HUCZLeJXNvtuQJJ4zscHh81e7Aqtvl118mvG7772E3+tLiVzLxePsjV7x+Rc0ggUmFX4Chl+h0SVYYFIhKWD4FYrU4MMexd40LP3bxzAjjWGPEgN741JkPB7IPnEB1HJ7T1caZapTnF9ftdze05VoVKu9QwQ98b6ue49BjxICa/biUNz+bdyAv1ShC/YXJGiUCfhLFbpwf52DQmPNXhyZ9nV899Eq7VaFY799Cq9u1xcTuR3DXhyK27BHREREow6bcYmIiIhcjGGPiIiIyMUY9oiIiIhc7KqJWbnPqscRGTNmrHpEQ8Xj8eDcF1/g8uXLaklsZDz+McbPXo4rMwpxsckyYBauzLwG6Q//NuQ6p+cOdJ0Ui/Kc+2SdWqobqrJGUh57WYYbX9+BlzWS8oz060tENFCs2XMxz22r1SP5hVWCi6274f3NtzD2mtsD1qUsXqutD7XOeK7BaZ3x3FDrpFiVJ1xZIy1PuLLK9eHKOtzs5QhXfrk+1DrjuQandcZzQ62TYlWecGWNtDzhyirXhysrEdFoxZq9OBSrmr3k29aIF7gIl7qbkXLnWvT96pu43H0Ul9rqkVS9wrLuck8r+jevxKWT+4KuM547vvqxoOuM5yZVPRx0XSzLYz9Hp2NeaNoasqzyuWPyykOWVT73i49fCVlWfHlJXfnhwddX369bX18ioljh0CtERERELsZmXCIiIiIXY9gjIiIicjGGPSIiIiIXY9gjIiIicjGGPSIiIiIXY9gjIiIicjGGPSIiIiIXY9iLV/NOYdf6T/CZmHZ994JaSERERBQd9w6qnDMHcyqyAW8T9uzaj7Nqsa4IZfMrkaXmNO17sfNgs5qJIzL0PdGIjk2zcdfP1TIiIiKiCLmwZk8GuSWYk9uLZq9aFKAZh7ZtxE7ftBdduZWYU16k1seRDzPx26PANRV9agERERFR5FwW9jJQUFMJ1IsAF1UtXTOam0QyzC2w1vYRERERjXIuC3tn0LprIw51qNloeXsRtDKQiIiIaBRiBw3JMwNlxR50Ndrv7SMiIiIa3RI47Kl7++RUUwxP+96B1wgOsWfq84GpbXh9nlpAREREFCH39sbV7t+rFZHOqTduoKzyJSjL7cShbTvRpZbFlz5sWn8I1yAfby+djGfUUiIiIqJQ2IyrdB3cK0JeNgqnZqgl8eOR7/4HPlvfi7qlszGdQY+IiIiiwLBnc7b/jHoUP0qyTwNH0xjyiIiIKGoMexp9yJYsbxOa4/S+PSIiIqKBcN09e8lTF2JWsUfNWXXVq2FZjL+uYeJt2o66o/FXqyetfv4T3IcyTH8qVS0hIiIiioyLO2i4B8MeERERDRSbceNeH6qmAj2dSWqeiIiIKHKs2YtX805h1xONSJePj7JWj4iIiAaGYY+IiIjIxdiMS0RERORiDHtERERELsawR0RERORiDHtERERELsawR0RERORiDHtERERELsawR0RERORiDHtERERELsawR0RERORiV9zz/JdR/QWNP/78JvWIiIiIiOLdFRVVfxZx2Lv26zsZ9oiIiIhGETbjEhEREbkYwx4RERGRizHsEREREbkYwx4RERGRi7k37OXMwZz5SzCnZgaS1SJnRSiT24mpLEctIiIiInIJF4Y9Fd5ye9HsVYtCSJ56LbLUYyIiIiK3cVnYy0BBTSVQvxE7DzarZSF4ZqCs2IOu+r3oUouIiIiI3MRlYe8MWndtxKEONRtGVnExPN4mNEe4PREREdFok7gdNHLmoCzXi+YD+3FWLSIiIiJymwQNexkoKMkG2v+E1gju6yMiIiIarRIy7CVPrUaRpxOHIrmvj4iIiGgUS8CwV4SiYg+8TfXslEFERESul3hhL6dAG2rFU1yrj8OnTZXasqwKjrdHRERE7nJFRdWffakeh3Xt13fijz+/Sc3FOzkMSy2K0IQ9u8J1wpBj8+lDtkTak5eIiIhoNHBdzV7y1IWqtk4EPY9Y4CnGLFWDxxo7IiIiSjQurtkjIiIiogQdeoWIiIgoMTDsEREREbkYwx4RERGRizHsEREREbkYwx4RERGRizHsEREREbkYwx4RERGRizHsEREREbkYwx4RERGRizHsEREREbnYFfc8/2XEfy5N4p9LIyIiIho9riguLY8q7CUlJatHRERERBTv2IxLRERE5GIMe0REREQuxrBHRERE5GIMe0REREQuxrBHRERE5GIMe0RRycKCh5fhvnI1S0REFOcY9uJQxZJlWLnkOjXnJ5c/Oi9LzQ2V63DfE+L4xuRQjtDk8x/Aglw1m8By5z0wDK+XTfnXsPLhORiWyy+P9cTXUJE7B486vebacrFezQ6MHq6H/ToSEbkIw14cqt/4IY4VVlm/PMUXZ/WEP2LTh11qwdDInTcNp95ah7U/k9MG7Jswj1+0UdMD8zdmpqn5oTM8vwA4Eee4IA373vo16tt3YtM+YOYt1l8MKm65Hj1bxXo1PzBd2PrzD9EzcyF/gSAiGiCGvbh0GB9avjyzsGCx+OL8ZCfa1ZKh0v7hr7HVdxDxRfvJCWQUlw1PTZEryKA3D9i6Du+3qEUulDuvClNa6nzvlfYP66y/oJR/DQvFLycfHlTzg3IYh1rSMLWMv3QQEQ3EVROzcp9VjyMyZsxY9YiGUn/zBRTcXoVJR+vRNHUB/uLqY9j0/jH0a2tloLgHi2puxC3aNBl9uxt8QVDW9tyV14y65rNqidx+ob4vfQcRy51+I2Zc0YgPDgerUZTNbA/iL+bpZbl+fD/OTcrA2YPGsazr/WXVl994cQ/+2KHtSNCXzc/Qyy7P4xu3q+dNT0bjPuP8bWRz4gO1av+yDOZzl8HkASy/+xZ9/eR+9JXd43B9gl9PKw+KK6cj+YS53GZd+ONufV1u2Y3I/+IzS1kC2Y5tOk+t3JUX8JHv2puvmf74z0S4Gj9punjutfDI1zflWtxy9Rdoy5iDb5jO2b8PKfT56sfNgOfmO8TrpvZrufBZqKmtxIX635quQRc6x1dgYaksL7Dgzmpc+OT/w8faevt7wLrP0OepL2kfMxm15anB3wNERBQUa/billG7NwcLZl+NY75aPflFPQ/p+zaoptZ1+OW+NCwckvu0rsO8mWk4dkR8ezuSX8r3YGqTvyy7J16PKWqtJrcMmb71G7Cv52pUa82OXahv6sWUaaamP7Ht1PQT2C2bqlXN0C+Nc/ykU20UqGIa8L7abu3WE8iYebPvPjEZJL5RfMy3n7VHpmFhoVqpGc7r6aBcFH6rKtvPPsSx9OsxL6LOH7J5U689PKOV/U1/jazYRzXe1/f51h9xpnCeqUNJhOdbKF7FzXK9ab8+2chM78UpW9j11e7NuxkzYdTq6e+Rmd0f+o63dmsvZt4f5b18Hd04kz6BNcxERAPAsBfH2j98H/smXG/64hREOJjSY713T/uSTZ+Ciph+E/pDwdvBmuLM4UzR7jdUjzXtO/G2b70e8DImZmtz9qa/3LIpyGg54r/Hy/Tl3n7wcJCaNnlM031hB4+I46chV3tiFiqKRVg1N38f/LW1eXXYrmcQojz+6yubK8VpZw2yudJ8PuL67zbvM9LzNTXROutFe8D6w3hbBrmZpl9O1Hvk/Y2mXxgOfqSF/rJoejS3d6LH97oSEVE0GPbiWhfau4EzTYf8TWxZaUB3py34dOJUTxoyc9TsYGm9LKu0jhqvmUJBgJwJyOjpDhrCDFrvYtW719ppwXwvlgxmwL7/o0KBCEFrtwILteeF6d2r9fo0jjHPVLPoXANlNizXMyRZ8+W/PtZax9gb8vOVNXA4gUNGgHV8j+jv60GHWiIiigjD3ijT3tULTMh2aM4KHWoiJoPe7G780rH5zsapaS03G+nqoSSDXvVpc5OhKL9J/RHVAUTWAOEY6s3HlIFPPu+tY5h6f5DAJ4Pe/ROw22gilE2hapXOHmKykDtBPRSG/HqGpDdxZn5ilH3oO3XE7nwjrGUL0fza0xXiFwlHTrWJREQUDsPeaCObKdOvx12m4TZy5y3ETFNQaj/da+lBW7HEXNul1yQ5Dwos1lnuDwxDa1oz7sHTyeE2MtRjI1j5v9T1ZlUL2aQnSneXrbdx7ryv+cOddpwg7DVHsplSPTSaRafMNt2PVn4zZprTaATXc+jYax6vQ5mpZk8LZoXTTPcfinKZyz4QMTnfKGoC2w/haM/VWGger1Hej1nor/2L6Dy15ufwtchERBSIvXHjXGCPTtnbsx/X3H2HrzflDM9/4Jc/9wel/ubP4amch4Wq9+O4Tz9ET/Fk1UO2EDfOG4tDm5x6m+o9Ta8Vx9R7TRqTU49MKbAs1mOdRdPFyVi0wOgpW4ALbedFGDxp6nl5Fv0ZFbipqAu7TWXqT70Wf/HnxvOK0LP1F/j1UbXSrOOU5VxvuaoXxzKSfL2B2w8329bX4f0zRaZrGv56WoXrjesXvjeu6sF6q+o1WzMWPS1pSDKe09GAvsm1WKh6JBe17cJhT5Hl2O2nk1F16zzU2nrjHjD1WrWWI/z5phRVYEay+TWyk6/ZtZibb+5Bq6QUoqpiPI77eveK98A+8RpoPXv1491S3Iv3f2a6zzKC85S9wou6d2NH0GtJRETBXFFcWv6lehyRpKRk9YhGpfKv4dGsj0LfizfMtB6zE+uw1nwT/5DxN50G7XgS0mCf7xayA4+8rzOC5v5BG85jERG5D5txE83BX8dV0JP33N0109QxY4jpTYSmDgQ0QKrnbbRDqERNhmvZK/x9Bj0iogFizR6NEL2GTN6bdWzr0NWSabWGlh7AJ6xNiFFjzR4REY0uDHtERERELsZmXCIiIiIXY9gjIiIicjGGPSIiIiIXY9gjIiIicjGGPSIiIiIXY9gjIiIicjGGPSIiIiIXY9gjIiIicjGGPSIiIiIXY9gjIiIicjGGPSIiIiIX49/Gpbh3c+lrWH5dCvD5Jjz66b+qpaODr+yGUXgOw+nJVYuweEIDXl7ViPVqGSWIeaew64lGpIuHPZ/MRM2Px+rLiWjQ3Bv2cuZgTkU24G3Cnl37cVYt1hWhbH4lstScj+O2FL25+JvaJzCjNzbBJjZhL7ZlisikNXhtdi72b38UP+1Ty+LY0sfm4vEbTMHU0OcPX1oYK9AX+7Tuxa1r2tTM4Axd2MvD6y9VolDN6fpR94sdeHK3miWf4Q/dfdi0/hByGPKIhoQLm3FlkFuCObm9aPaqRUF01W/Ezm2miUEvLn3U8Cge3XT/qKsRuz+/WATUbaMi6EnrX9mBW1dsEdNetIj5lq3ysZjsX/gy3GnbyWkH6iZU4gMRpJ5Uq+OZ75zEtLk1BVUPzcUL1WoljZyHe3EN8vFbBj2iIeGysJeBgppKQIa4g81qGdFImIvJaeqhq/XjyVUyHOZh8ao8tWx0eGFrA/qQgix7TSURkcu4+J49GfxqUYTgzbgyFB7qUIviUeoqvFRbBY+aRV8dXt2+Bh9pM6pZMhVo+eR+PHtSW+h/jrGtNn8tjmx/DZitb69xaBINe3+Z1iwJbNm0CZPVsTXGdvby2ljKGQF7ebyHf4YVDTvUnO7+G9/CIojjHy8XZStWS/v9TadRlknb32Q1I1jX69d82nFRjt67nI/nE0GzsXY9jX1ITeLarsJbas7Htl3Q6xC03NHSmzyxdQse2aAWKVrzHgKbbfXm3TZsXrEXL2hLUvDCmrmoMt4jQt+BHVjySr+aU+6pxAcLbCHR1GyssW9jX69xaKa1NC87nFN1CTY+VIpT9vO0H8+pmVo913R6gun8tX2kWpuJgxzP3jQuax/N67Xm9eIT4pz7cafpHAOup71MjtcRooyfo9xxP05N3X7244Urd1Qe/hyf3QW8vXQynlGLiCh2Ero3blbFEsyRTb5yqpmBuIqx8gteC2n3602YYtrSW4Xltatws7bBDvx0+8+wXwSMwtlrcL+2TASM2aagpy2TUjBDhRRtX9vr4J18F14qnavW62Fh+XXtImwYx9uEFrHNa77jGYqx6K7AfT07SazqW4MV2nP1cmkh0Le/6MOHr/lWlkUtcyTLWdaNV33HFuc7W5U74jLJcKaCo7FenFv27Lf0czPxXPeECr36dls+9x9PBtTX7npLTCoMy7Jp83J6DX9jfBPLEJp/0H8srXzi2tqut7Y/EfRkeDO2fQN3+fcTRbmHUvNpGQJSMUk1iT65qgrY4G8yvXVrG1JvmIvX79HXSzLE6IHI3LSqViqB2+xAHUrxuAgl/mZjGSxFSLE0L4sp5H2E4jn3yGDUhoO2YKUHItPxZDO1udZShiYV2oxjvXzAFmIjIsutwrNxvF80IHPBIst10qTq5yzDqraddj2r/E3QWpmuRoP5WnaL56wpwVK1iS4Pi18qRZfaTpbbv582PGI8V74OMiyqeTn5g14U5SaiuJCgYa8Zh8z36m3bLpYUY9b8OYGdNkaE+AIvK4b38GuW2qK3DotglXotbvZ90cvAJ4OQCAk3/pUIBo+KgNGELZagp7PUBokA9IfPRWjJn6sHCxE8vjJZ1gaZa5X+Fc9+0iTWmY+nk8HDv6/j6BT/Zaf5g+Ows4TbHfjouPhSSp2AIm0+QpPu0q+duRZOXafC/L9SCxR5PFMNXHOP/3j+gOoULk21fzKEWmr8HMotXpcHr0vRXjtzUP6oYZV/P9GUexi9sMbW8WHD51pgz8wxamrzcOcNKeg7UBeig4TTNv14coNsfs1DuS9YpCJLvEf7Tps+LEEUikDywUtymouqbhlWjJpIST9ey1bzMnG83SI0FkxW4VIEnWoR/ESwHHAtlkGEzarUNmw2h9LdjfiDCFqF19pqO0U5ZOD1HbO1x9QErZfJfi21ZurUq1FjuSfR2illfd2J6Juyoyp3ZFZXHAeOprFWj2iIcJw9zRm0HmiCF9nIyVGLRlQxJogvL60GyVcrJCatOTJFW+cnQpmqXZNNntbA5tfZa232MwcU+b8HTfjMXvN28qD4grYfrx/dlu9UcXwRZOzNiqPNzWm54l9Za2m63mLSmkbT8q21m73HLWFaD3jO1z0UWZtqPpalCV3SXpd+HPk8+LWNqtxDrg8njbAhmxS1UGVMtubB6hRkinNrqDNqixwE20aErwbxHvQHxzb8RquhmqsfK8S9g0YHDa3mqqDU2jlDO545EKpJa9I1ai31YNnyp1C1hpFZmiM/WLKmzXo8rWl0QoqtRs50bSURrpaI89DDn14m3/kbk9akG/t7EqMrd2irn/8En63/BFX1szH9KcsPGiKKIYY9m+SUDPVo5MkaHX+tkH8KaA7VQoEuqhq2vm6wG4uZvGcu8Ho/6lBTOlj6PXbyXj//cV49HCL4hDR85Q6maKIIXn09+vvJuHfM0qyq9/AdKr6exFtlLVylHkACmjD9Xlgjy5OCKvv9goK5x65/GqohWtpMTcamaQBDnsh76gL2I6ZB10A6ik25n3lKhLyls1FXIULfa6fwiFpORLHFsGdISROByYuO9jNqwUhq0mrPPOnmm/eDkPd+zZZNviIYftIEz3WPmu7nCq4oXXw5GzVUIvR5UYzp9nu8JpWjMKAmz50+6m0X/+Zi8rBULqieuuGGZdFeF3vNqtXwljsIEe6+UiCK29Smf9EXpCNVvG/qZPAKyV7rlIJJE9RDaXc/TollpVW2Gs/qPJSK8z3V4RCON6iAKY8d0IRpptcGWmr3tOOZawyDs2+jhd0ore+QL77/PseB60OX2FXqxOF5E8Su3H7P1OcDaedQouaJKLYY9iTPDFTJAZjb/4TWMGPzDY8d+OmhJu3mfnMnikD+DhlvyGbUk6v0zgK1RocNZ/Kmf61W6bC6z6tvB46In9/+jh7SX+FZ2QN0QOPE7cDnveK/yeUhyzG8wpTp5Ca9Y0eYaxcbqiymZtaAntCSce/dbFPHDuHm0jX++WEttwOjFq+vAW8YN/Bb7ieTHHp5qqbYQvF8vfZN3vRv7b0rA9nBVhErzB0R5HayY4U43m9C1FjpTY22pk8b4341f+2evzk4eEcDo0ylvg4i9l6pGvs1MK6TmtVsaECdeO2qHhrsGIXGfYWV2PhY9KHTidbhJlhYjlm5iWi4uG7oleSpCzGr2HmgDTmIsjbUigx3NcW+pk/Ai+Zd78dJ0DMJGJpD8HVGEGHsrru0mjfrsB/Gctm0twpvOQ49otapOYN9+I6AIT608kT6FyFkL1HT8CxCtMOB2Mvj5y+/tk2atfexHpxkz2L7OYYrU+B6yb+NWh/RX+EIt63xOinydT00Acu1Xr7WctuDYMDrErbckRnoX9BwGnLDvq+WrTvQVT0XpU3m4TusIVDu5zc5xjAj/ubAgHLZh0JxClJaM6O180XA0CtC4JAxQa6D5Zi2YCrX/Wmy6sUbbD/yGPqQJ9YyOIVc6zXV99NnOx8H9iFjJPPwK1EMByPZX2vr0Cvhyx0VDr1CNKT4t3HdToW9zii/+IkochEHMnLGsEc0pNiMS0REI6spCT04jtu/e0EtIKJYYtgjIqKR9WEmajblI332Pm0oll0MfUQxxWZcIiIiIhdjzR4RERGRizHsEREREbnYVROzcp9VjyMyZsxY9YiIaPTJePxjjJ+9HFdmFOJi0za1VHdl5jVIf/i3Idc5PXeg66RYlOfcJ+vUUt1QlXWg5SGikcWaPSJyNc9tq9UjGUhKcLF1N7y/+RbGXnN7wLqUxWu19aHWGc81OK0znhtqnRSr8oQra6TlCVdWuT5cWeV6IoovrNkjIldLvm2N+EFXhEvdzUi5cy36fvVNXO4+iktt9UiqXmFZd7mnFf2bV+LSyX1B1xnPHV/9WNB1xnOTqh4Oui6W5bGfo9MxLzRtDVlW+dwxeeUhyyqf+8XHr4Qsq3wuEcUX9sYlIlcbk38TUv78/1FzwJmXb1KPAtf1rJuDLy+d1x6HWifJ5leDfZ35uaHWSbEoT7iyRlqecGWN5phEFD+iDnspqRPVIxoq1dXVOHjwIPr7jT9NRERERDQwvGePiIiIyMUY9oiIiIhcjGGPiIiIyMUY9oiIiIhcjGGPiIiIyMUY9oiIiIhcjGGPiIiIyMUY9mhI/ZfrbsGmObfgrSnuGox77H0/wPU//BGuf/xOtYRo5CTlFODaaZOQoeaJaKilomDaVBSkq9lopU8Sn9mpuLYoC0lq0VDQfzZMdfGgyl9Zjr+7bQrQtx+/eH49mtRiqxLc89QjuCFVzeIYtv7dq/iDmhspbhpUWYa927OB/pa9uP/YWbV0JMxE5qr7Mal7B/748m/UsoGTYa+0arx4y8RmfxSe/KFVlDEG3vajaO1RCw3yB2fueFw4cwJNHXH6VxySslA8JQ3+Pzj5BdqOnMQZNTcY+rW5GLP9URTU63rB6X2Jccgtuhop3sjfl8b7PMCFXjQ3d+Gcmg0r4P2mc/z8xILj8WL3Ho832uvkOWt5TYK+dt5O/OlEn5pR1M+sqF/XAXJh2Psqvvn3t6GgdT8OTJiBGxAk7F2zFN95aAaw73X8ZEOjWhgf+Bc0hkJswx6NBP2Lc8JY+xeIWo7h+aE5MLIWQPzW4/uijW2ZGfZGkv21NdNf53GnBxKwQu03Ak4hdCh/KdKOl4z+Y61o197QwT6vbqCfmz3Ex/Pn0GXNuLKm7jbgd8/g79d9qpY5EYEwToMeEQVzHu2nvxD/j0dmzjh9kZSeKb5QLqL7ZLwGPakPrUfMX9rqXMYmI2Mo23Bo2IxNMr0nfcZhnL1qbST1nESbV5TVkzakTYc64/M6Bklue49rP3O+wKl4bUVw4OK/jauaaJ1q9rQmXsRFk62TIanZSy7AW7OmIEXNovMw7jp8Ss0k44ezKjGtYy/exHX4ZqFxf90p/HbnYfx3Nac1yUI8rzMHm8oy1dKz2LdnL75vtNDaj6McO/R/8J+71IyPqm1L+wInX/8HnDqiFkfrqytw/e1Xqxndqd9+Dyd/Lx5MexjFj1wnztCZbztVlowjb4nf1L5i2p+1bL7mW+Vsndj+7X1qTpfy+I9QhB3442clQfcj2fflE9A0rGqr4+Q2g5GWcfVU5HmM2gJVe3DB3kxi1CqoWcHafOX8PG3fY4ephlDVsgyoWS2iJjO9Zsij5iT/sdQ6h+alwGsQeC0H3PRkNF35ONT6BGl+tG4b7vUdTnpZnJtqB1M7NwQ1e8KQ1T4F1OwJ2us9Bt3mZYL+GVYzgtNrF9gkKn6hs9cahvr8ascG2tqBPO09J98/fUjTPhPmfUn2z4p9vZV2HAR+diK6tvbPgFMTrybU51fwXW9xgpNMn4Ug+7tqYlbus+pxRMaNGy032k/E9DlV4gVpw77//Ud0q6VS8ezbMDP1czRN+nM88sAdqJ2/QJumXdqGuha10QjKz89HR0cHLly4oJYMUtZ12HTDJFxo2Yt76pvwb+JN/G8oxD97uvBrLaSNxa2TJ2FK9iTMutCIu+oaxDZefKVwCmZ5vPi3Lj3J1WRPwTXZ2fh69lkRAvfiW2I/2Z5izLkmBdnHurBLbnSxB2/L/RtTJ7BkcgbOdraqY5lNQvLcCqQmXUTf3t/jrJE9oyHD3H3F6BWhrem1D9CxVZ/6mtX6U/vQrS3rxKVqcax2EaSeezlwO1WWiUUVyLlG/LD4/j/hhFjvvXYRCmYVoHvHPlwWW13+4+/Vc5Nw1a2FGHvyILr/2KbvQhk3+1ZMmFKInNwTaPiHF9GmHbsSk67370cPehAB8Adoedu/v2THewCnYtb8EqSjB03bP0UcvEVH1LnzVyE9IwXJV3nRPSYT+elA98lO9F9SG2g/JPOQdk780GtuR9epbnRdHI9JudlIl8/xyg2vQsqENIy/7EVXr/8LenzaBKRedR5nzpyFb3dDJCl9AiaMv4z+Uz2mskdAfllcnYJz4gd/0+fi3MT59V2VqvbVZwpoGfA2teKEPH+1TU5WOq7ql8c7j3PyOWljcNH3HElsI76FL3R9jtNqYcbVU5B9lfhMNH2OdrWvroFcH/nlNOEs/sN4TU55cVXaRGRPuAp9xv5UQMGZE/iP1i5tu4vjxWtiaQqM5PWNhrxWU5CfMwFZmanq+qhVEdHfS+NEAJbHll/41+SMVec0DumZ43A+2tdYI58rvur7u9ETJHSENMaDiRlJuGx7fuqETHEFzw7sNQxFO95YXOgxzlW8TlPSMfZCP9rEd4h+LP1aZ182vXb9VyHr6jykXjSVU7zHr8m6UgSuFrR0qPec5RpG8PlNSkVWynikjjsr3ru9GCeuZWraeHxx4iS+8GRggvje0Z4r33PFE3GV6T3Xd1W6eD9lItlcJoPY/ursJJw73R6wbkxKuu1z6OBcnzof+f4PPAdduM+v2ES73slIyUjD5S71s0B8DrImpDuWOyF74xZkpYr34QxUYz3+/u+e0affHUPBbavxza+ojVwjE/8sa+E6D1s7SHQdDqxps9T2ncJnIqghxYP/pC9QrLV9/73lGPrFMaZnqQVR2YdTa76HP35/ELV6+WlIFr+xnT+u5ger9zAavv+SOCfd+c4vAPGBdGqgCUnuZ83Pocf1feg9Yt3PuGzxm11vs1iuFuA36D0m/puQ41Cj8Xv8T+19ylo9zbkunDhzEWMzclE8Ud5/1G75DTxJfGl75G/x5t9uh7X5KgLyC0PWWni7g9YeOBNfAuKc5W/voWt7zqO92Vq7cK7nrHg/jsE4dQH0eWuTuHHten37Hock+Ya8cC76Wjw78bo1WWocxJey96J4UcaKUijiYGNxEf09/i+/M33WpsBYv74ZV5trCMeIX9QG1qt57Fj9Oo4fK15Xo3leFDrw8zxyZBCVNWre00NVcy2v31S9l+m0bIwVAepP5hpg1fxpee3E+0LkHnhSfT0lxWWTNXoXcS4GhfSf6xgRPAM/bxlZaWJ5L06YamXPdbSjW/zwNpfJkJSerG3fEfTzNx552vn7p+h77Ib//BostX09fRCX0vGWgsQdeqVvPzaY79f7w+9wQLz/Csq+qha4RLJHRDHgWOdAqs0cnO2HzCQ+Z70i/olI6RmhGt/f/wEne8Vv9Y/8SBsKZdJgX77uDhXQdBfe/gcRRv3hL1b0EFmEtGlqAe5E2hRxOY/stRyfnJ0Tv+175Q9vh/tmtC9bb19AM4oWGszBYsTIGg/ZTGn70ouIfg+Yty+C58kaQPOXjr1pVH3J+gPSOGR4xojwfMp07dR9V55sfR+DHCZCNn+ZyxTQc/HcBe0LLSXd/2WVkSpesQtncUZ9Scf29VVh1iLae8zOy2IrqUgbK2v4zOcQm9AyUJ5c8/WWTYwDbBaOiGz+PIo/HTmhhaWxGZmW4KyHuMAwpDXpjk3yvbf0z7exXQFyB/ymu4jzpmt/4UJgDZp8/S94e23h1/hFxF8mXSpyxHs2cHszWQstr4F/GtD1Dvf5jRLH2fNphHh/ARNyUawvoCic8ga00Q4To3bwe2gWKTTzdj30Fd83U62PTxc6ZET2h9TrfzgXmcd2BNz/R8H0oVf+CuvwpR/fjPtw5JdijO+ZMpNfFKrXpe9L51hvwC8SekAyaqHSkOJ003nPSf/zx6ahSPvyib72S79PywgD+tR8RnyhmolUJMs4NuNq35ecdn/mkN1DaQ5qhkGEs/RUeC6cQ7u4rvFSiyxrfnzvgVjfpxeU+CXhpHy/2TpTaQLDkDZZXmO9Q5MeGv21hQMe0y5W5Osryj/kHTMi/PxGIyHD3h8OiVSQOhEFal5XgpwJ4r/u9iBj8o1SQ13zptUcntVqCEZa/8v+0Jc8rTKumk+sZiLzlqu1zh2yvL6JQ8LExBcXRIDwpAaEEb2G6IL4UT1S5H04TjeHR8/eTKPVdpnoNSgRfCn1nNK+TGUtlGyegqVWz0Y2w/q+dMYjLaovXlWDFqbZWmuilZ0/jC84bbIGlFi/vmdO6LVQuoGFcK1MY5OQK8qg1brK5jQZotNls3SCMmqOTbV7587JcB9NzalszpTvAf01cmpWHRw97AcGc72W2377gvYeG4ZfMCP+/EYhMWv2/nAYrZiCBcv8bX7F9yzFDal9OLBV65rpIqfw25azSCmsxD+b76vLus46PyCZ+GfZ87azxd8bNyqyB6ys1foBMn3NmYM1E0laaLc2x8oawHOy5nZKSUBP4ZGSnJ2vHoUje+Ouxt/9/XdxzzVqEQVl3IuWd7Xpi0H8pmy9V0nV6Jiaaew9BM3kvU5aTZN5n1HS7w0bbNDTazTNX6BO5Q74UlUdHwKDh95cJWvSisQOzffKBaXuqzM3j4UXeL0De1sqYZpiI3t9o2EECjkN5rVJRorHuN9Rvk5jMCHDOYD6mrMH8X7SyNdVqwEdTFOnLmZlMtHvtzTV7qlfLqK/L1K/fcHfDBvd5zcUvXY7DVdb7l3N1T+rXabbJcS1zpQ10+ZlQyTyz2/kXDf0SvE938VDM53frK2/ewb/8w9qxjechSF+hrUYkqFXZI9c33ApgsPQKzP7zcvUUCspx/A/97TiV8Z8tr7OEPYvY6ihWE4N0dArjsOXBP2rFsbx1KxgH3ol3KDL2rAqU9SMxQk0q3v7tG0mmDtoGOU85dsm+JAw/v34+f/SSx/HhvTRfrg7DH+gM5pLDU4hy7qNbDI5gdyAUfE1qlnFeT8R8D3fQdTDmMgaQn+nAm2A3HOZYv+wDPlg/fKT5e7GuClOQ3mo6+A4ZIP9OkoDvAb2fcnzPj0WRZZyW8/NzDo8RySv7zAyXl/za+m0TGM6R4drHjQEO71PQr0vVUBw/ssedqHLFBHteLahV4z9WgYPd36Nza+vU3ALHAg6zOdXuzbGsC/6trLDSFMH9OObh20JCFOyqdlaw6u9Lk4/G0z01y700CtBX1/baxj28+v4+prPU79Wxn5cPM7e6BWvf0HDHv4iooW9bBwxj8WX8O7EpB/ORXLAGH36cnnvXkDgVH/+j2FvpBhfUIFfAqOf/gUx4PHcYkj7YnIY51D/wnLjtafRITBEjTbsoEEx9V+uq8QPTdVV/6VwClLOduITBj2/aTnOgzyr5Wc77ePIlOCem2V14jHsZtAbGdqQEbL2IMQ9baOSDLF6rd5IBz1ZlsCesZJaPqL3W1JCG66OGUOINXtxaHTX7GXin+dcB19L59koawIThcNf/ZD8zcq6ryxbjQXyXoO+IH/jmYaYv6nI2ow4ypmbrQbabDck/NfbIq7KSDT6MOzFoXgNe0RERDT6sBmXiIiIyMUY9oiIiIhcjGEvgaR88w/alPTVZ9QSvysyS8Kuc1o/0HVEREQ0PBj2XGx87Q/UI/FCTyzGpeOf4IvfPoUx19wWsG78wh9r60OtM55rcFpnPDfUOiIiIho+V03Myn1WPY7IuHGOg0ZQDOXn56OjowMXLlj/BkS0khb8A67KKMTlMy0Yf/uPcXbTf8aX3S243P5HjLvpMcu6L3uO44v3n8bltgNB1xnPTbrxm0HXGc8dO/Mbjusu1P2LKh0RERENB/bGjUOx6o171eRZGH/nf1NzQP///Ip6FLjO+y8L8OUlPVyGWifJZlmDfZ35uU7rLn2+R80RERHRcIg67CUlsWZvqP3ZnHnYv28P+uQf1CYiIiIaBN6zN8oUTD+H//7UMex6+TD2vvwf+MM/duK/33bJ9Dd+iYiIiPwY9kaRRx4/hk3fPYCF5W1IH9+LpPGnkV1wFAsfrMemv+vDXQHDzhMREVGiY9gbJQrubsO3bm5Dkpq3uoCk4kP4xyfOsYaPiIiILBj2RoVLeKb2WJCg55c0vRPfYtojIiIiE4a90eCmHlRmqschfY7KWvWQiIiISGDYGw3SLoWt1TOkZw9ubD4iIiJyF4a90aD3KpxTD8Pp6RyrHhEREREx7I0OH6fij73qcUi5+KxOPQzgwZrq+Xivdj5ezVaLRol7i2q0cr9XnqOWJJocvCrPv7YGawbZ43p4rqX/vaZPgy93XJr/Hcx47kXMeGYZxqlFRETxyL1hL2cO5sxfgjk1M2AfBjqrXCyX65ym8iK1VTwZi2fenxKmdm8sevbm4bmDapZizghK1rBsBLEKrFRLyItVu7fhju1iqu9Qy+JD6gqGMyJKPC78CxpFKJtfiaz2JjSnFou5JuzZtR9n1drg9OclN21H3dEzatnICPYXNO568HP8423HHe/fO9dShv/yg1R8qOYp9mTYW1bsATrqccdBFWKyK/Behawl68CW7fVYqy8lg3Z9UrB39y6s8qplI0iGvZKJn+HQ6nU4r5YREbmdy2r2MlBQUwnUb8TOg81qWWSSp16LLHSiZYSDXiib3sjFrlNqxuxCPv7Xqwx6Q60w1YO+pka05OT5avFW5okgU98I/mE7IiKKVy7+27gy+NVGWLMXP7V6Uqi/jfv1JxrxTHkSPtyRjh4xXzDrMCq9ZVj4X1PRqm9iI++fqkGl754pr0Mti77NtLZd+HfcoNdeaRxqq3w1WX4t9duwvFPNGGzb9TXtwn3NxkH9x7uvv8S0nbVsvpo0xboPq5Xl87HIdzinc5TNrRUoVHNSYLnt18q6jTzGnL5d2Jlag+ltYrm3CG9XAP9eD/xl9SQc0Y6p9tFvqv0TtPKlNGLd7ma8Y8xDbNOWF/T8A8scovbQI8pSXYJUNWupfRQiuZaRlUmK5FoqEdTsjXvghyiblQzvnjdw5M09amm07kb+c7XiFzaTlu3Y/9K74oHDOhPzcbWylB7FodVtyDE9x1I2ea/e4nz9seQ7jom2DdD4dAMygu1HE6xsZ3F83ffR1aBmhZKlP8AjVWnoq3sFP15/RC0lIgqPHTQEvVbPi472+K3VM/xbpwjbF5Lx0RtpeEpMR2QevIwgQU+K/P6p1GIRCFIb9W1FqGgRX+qLzDfyy0AhQoD8Yte30Sf7l7x2b5ttu39HScBN+vJ474mwtEVts6XDg8qKItyr1r/TvEs9X5YlGBmuZNCTQcg43gGg2L8ffZs8fOZbvw3rmrworDB3HJABRoU0YztxvQor5uPtImvB17aJ5Xk5uDdnEiAey/A2IDkiCJX0Yp12vF3YK4Ki+fxluFtuKm9QMlCJoAcR4HxlF4HNfG9hZNdSkGWyvybV5vsRI7mWw20Wsp4RgUmGrqe/7Z98AexdHFfLGuXJ936GQ6btAgJm2nSUiQCGzWqbzcfhmXUvskrV+m0/Uc99A8dDdpzKR8lzNfhinb6fQ3vOWvdjBD1TueU2TkGPiGgwGPaQgaw88S3V/ie0hvg+TQiW2qAOfCYfpnj84cOThlQRHk+Fuk4iEP5lsWzu3GUJge801wfW7HgbRdDx11S19IkNxDHMNUbh3Ft0Ayo9svbJXOMlAu5BvQZNJwOvtUbsnY6T6BPBJVMFlHuLSsRxRWA01Yahs16EHRFKZbAT2+alGMvbtKbcRanAkY5BvGnk+auaPlnGj9uiP38tpMpaOPHaWWrqRNkda9rCstYerm2STdQ5mO4LjuGvZbTOv/l9LegMvFavAOPTRMk6g//KEx0Ztr6N49vUbGuPOOtkjI/6r9NYQ9v5T49a91Oap3Ue6zrorxUM2Makcf0/4JnvPcVaPSKKGsNeTgWKRFhoboruHr8Rc1lM47vx9b9rwyYx1Yov4XO9wzS2XmejXvsUaggXFQgjCkH9XkutmF77ZA0S4cj76OA9iY/DHU7WfvmGAhGTuclT0PbT0RZwbFmLFxjARCBqSkFhivm4Aw87g+IRxxX/tchyxoK311rz5xXhXvyXKUK/T5hrOfzeRYdWa/agPhTKirvV8oE6hXPmWrWGdTgiwqgv/MVKQ5t2e0lWub+8426cKt5Jx3Em1sciooSW4GEvAwUlIrGMplq9t/Lw+t5U3zAsZ5rK8Nz/iPTvawyWv0lY1njJJk75ZW9v5ow76v5BWdtoND3esXtwnSq0YGrUyqlA5GanRDDXDMG1jAWjdlA2uaKwdpSMf9eKL2QzsFFeMZXNAo6v+8mIX08icpfEDntarR7Q1T5KavU0V4pwl4u7/j5Pn55Pxb+NQFBde9Af+vRmTsXbO6gmvWhF0vR7b4psf+3AziCdOyRtP6ZetoaV4tz02q4U7Zx8oSdeONW8xZJWc+hvuo/kWo4o4346GfrSpiLNd39cHJo/H/lpx9Eoy+ubeK8eEcVeAoc9VavnbUJzjFrAEo+6j83cHOttxk6t1s96w/69RRVDcgP/O82NekeSaluHjHJTR4/+fvFvCuStmRp7z1VBv+/M1iElu0Lr4dvSaL7/Lxwv2rTD+e91tPYUjjXZpOzVOrtYmtVF2Qf/l1Jy8Kq8Th2NvvstI7mW0ZI9YGWt1rQHZqklgzcuTzZu25pjhfOdZ+MsBGYiKcKyyN64q3/0PFY/fqtaQkQUGdcNvZI8dSFmmYaYMOuq34hDRrDLmYM5FdnWZXEi1NAr0QscJsPH1yEjsuFC7MN3aGxDfBhCD/XhfDy74CHJ2onAtz/f4QKHC7HuS65vRGZ1BWAZMsR+rcz70ddZtzfo6zJ952jdjzx3bUibvJPWoVdM11bSr1m//9xCBCnr9RRU86qP7XWJ5Fo6bRNwHCH8tYzkPec36KFXSpdh2rLp4l1gJmvMnJtDU+XAyqbCBQy9MutU0OdKRnkDmTpkaEOvZFp71apynt3sv//PXhaD47WoXYHVt8u/8NOM333vJfxeX0pEFJaLx9kbvWIb9ogi4xRAaegEC5b6cnnvnr1JdxqW/u1jmJHGsEdE0WFvXCKiETAu2/kXZ315YBM0au8QQQ/oq3uPQY+IosKavTjEmj0aCazZG25yMOgHkS8CnIUc9Nn8t3unfR3ffbRKa84/9tun8Op2fTERUaQY9uIQwx4RERHFCptxiYiIiFyMYY+IiIjIxRj2EkjG4x9rU/Ktq9USvyszrwm7zmn9QNdJodZFWh67oSqrXE9ERDQaMey5mOc2f2i5MrMEF1t3w/ubb2HsNbcHrEtZvFZbH2qd8VyD0zrjuaHWSbEqT7iyRlqecGWV64mIiEajqyZm5T6rHkdkzJhh+qP7CWxKYRHa2j7H+fO+/ngDknzbGvECF+FSdzNS7lyLvl99E5e7j+JSWz2SqldY1l3uaUX/5pW4dHJf0HXGc8dXPxZ0nfHcpKqHg66LZXns5+h0zAtNW0OWVT53TF55yLLK517402/UlSUiIho92Bs3DsWqN+6Y/JuQ8uf/j5oDzrx8k3oUuK5n3Rx8eUkPl6HWSbKp02BfZ35uqHVSLMoTrqyRlidcWe3riYiIRguGvTjEoVeIiIgoVnjPHhEREZGLMewRERERuRjDHhEREZGLMewRERERuRjDHhEREZGLMewRERERuRjDHhEREZGLMezR/9/e/cbGUR7qAn8OhQSv16TxerNc2XjjxTly5MVyzME+97gqtggYqtvwISAFhFS1lQMfclQFRKCgVFUjaJqI5EtU0fiqR1eKTpEgqoKOmkTQY1c6lq7NwXHNRolq392sFats1nZIvB6XtKH3fWfe2Z2dnV3/yRqvZ5+fNPHOO7Mz744JfvL+M5U8P052deNcVwcOe1TRMu0Odoj3y2sY2wfBFV6opO1C7ZFjaDnyFnzbVBEREbk47Pk70dn9NDo7WuC8DHQQTfK4ZWvyq0O0yjw43J4JHtbtZI06hYrqdHwITw70iy2CSVVWErpfYTgjIlplLvwNGjLEtcJ3LYa4t0HsxTAyNIYFddRgnFMRG8CFKzeMIhkOwzWYiZzB5aRRtFbc/xs0ZNjrQOt8BE9eXOOHXXZkK2EY1bEhPBPXVNkakmHvqWpM9b2JmXFVRkREReWylr1NqOtoBURgG7wYV2UO/HXwYRqTZtCTklcxI75UVG4y9omIiIhcwMW/G1cGvy7nlj29Fc+D+NBHuGo2bnhasKOjAQtua9nzBPFB+/2YGP4MCHeg1RyqlcxtVZPjunobLGO5rOfUhHEuDJyPAD1h2d+dxPmBBLZ3hVEPDaPDQ3g93VCkWu7Sl8pzvEDLnl6XwOc4n7gfPbJOWhR94t7PtYfg1e8dwXFx3v7mbvRAXCcREPUz++Ht9zNasxDpx/lK62fMXMekX8/SnT8p3rN3Wu3o7J9NkHUbjuO02pVynqX9HPN5DkQRsF4v6/ti1Lte7TnV15Bbp1TelrsltOzprW214sMPYOzEh6pwudrgO/gCaqvUrjR3CZcP9eGWeOnddwyhzAfLZjnPqAsQPdCPjdbrZdVNjtXrEv+AM02J899B1t+ebb1o7N2K633iO7An33UM+eqmjZzCxHsjak/o2odDTwTFNc7h4Lu/V4VERKWnPCdoiB+occ2DYIc5Ti+IJhH0PFoM8TUOeqvDg1YRBqqjcsyW2CLiQ/rDWePjZMjpbZgXYUKdI8d2iXPOtQexW50jg0JPaA59+rivSnSK4DUrQtWoeJatDWZCkmGiA40Jc4yYvN+8fv9lTy7whNDjjeLJ4ShSnvvxXLgKg/q9/ei0TjCQ9dSDk3G/80n5ecPYrw6b6sPiM4oA2aefJ+stPk+zWW8ZmFRwNOst7lst3pP9nESogghu5jn6edlBTwa55/BZ5riss/gsvel7mcT9rc9Kfs6s70sSe9U1+mJ5gpmwv/khPcim7ye+v96GjjUd/+jdJwIVRGg78DLGzM0McELqhCo7OyX2FjDV53yeoRahIy9g8/gp43jfJWj1XajtVofxIabUey+PZA/YyFaB2t4XcO9/qfvIe2ddxwx6Miyqc+S9RHlO0CMiWkfKdDbuDVwdOoMR8QPUF5aTM4zxe4M5Y/vcI6uFajqhD9KvrlSByRNEp8ghkxFrq5EIGjIUipD1iCVXTUbNYOOBdz5qaT0z7A6GUK9F8Rtrq9F0VA+EjX5b2pMhLWuChj0QahiNmelbHEhEHVq1pOwWr+MxEZpEkNpuDzuy1SwdzDQk5sUX8Qz0MFsTQqtHXMfa0qjFMSh26wOZQBioFF/mtexwZzcdsbWaJXFJXta8l4X8vqTP1TTMii/p78sSHb9obcUU7N/f5ep/xwg6d9Cqt3Gz+HI9YQttKzdz9uVM2BpP6H9PKwJtxv4yyOtM9aud/nFj6Eb6Oqrek+OZVsHxT3F9Tnzna+pUgcXACRx841W26hFRySvTsCe7eJ9GW4OGy/1nRMiLAQ1dIvR1WrqCyoinSu8avZTVXSnoocGD6nRmEGHEEipSKZmWstV7xcmyFcsW4mQXo9crk5KFDF9ma5S+2UIL5pGw7M+KkOVIm9PDTVqe0GSv7/GL4p4q/O2ulHWTLW3Weqsu3XRI0/B6VKQ2M6RmtXpaGa2EOdfJkf089YAtnsOyJ07IrnrLvc5ldf2uhRHM/JfRatYil0I52IsN6sjKLOAvV9VLndGSV/yWthF8eV18qd8m/j4o2x7G5ioREi+uNPgSEa29sgx7FVvbEfRMi6A3qP/LHtoYLvSPitc1aGoO6ufQHZDj07JCnNryjM9bLXnDYV6yhdCh3tZu2mkVUPWuZTPUWruMzfFz2dc6v1ofXR+TGYI3KziXwPIqZuug7Aat2o4mff27VzIhqkTdmpZthrLbWNZXbL3bRQY8lWkNJCJah8oy7Hlki482h+wo8AVSy80GbiGehWO3Z01An3yR3fpU2KR8iJ6qtW1Z8nhQvcx6n57X+3QRyG4MzE+L4xkZrGToy3p2lXpLaCqWr8u5yPRWWWt3d4kZ78NEeuxbLTZZxseVnl3wt1XoXb16UFUbx+oR0XpXlmFv5tq0+CHZgKatlmVW/GHIMf8z1wos2eJWWhITIhjVh60tVH6clLNbk7nj8go5HY9CTqDoydvFudpEvfWWruXV2xxX6DSxoyAVtjLBcl5/be2yts/wLSo9qFu72u0zeFdAX+j4GFr27VIFRVB3n6ilvTtWuHpTPL0KbH54+ePvVsuSxwLK2bhvH8WhHz+PkCoiIipFrlt6pWLr42izLnlhkbVgslpE2aoUFlSWir/0SgizWUuIOC+/YQ8lWct36EuFVKolTazvh9FtmbWMilPgsC6H4rB8iWJOJDGWLpGzgyM4nvUZsuvuFKRylx1x/ry5nOuVmdyy2OdSzK5VtSvHJvalQsZMYLNLOOt56mflsl/HwvoZ7cu8TEaGMBsyZvma5+QPnA7Ludzx0iv2pVAkOeM2z8LJ5v1MOUuvLLLosr6synbx3cuVnkWrzlmwTtBQ9aywzrS118VkrZOp8Xm89oMd4vszh7Ff/wzvT6hyIqIS4+J19tYv9/8GjeLRQ0xl7jp3RMvmGAgFVS7H7tm7dB996Sh21jPsEVFpK9PZuERENnpXswNVvpCwjd1rfB7/LJt5JwcZ9IiopLFlrwSxZW/p2LJHxbRhz1toarP/P87eBf0Y9r79JB4Qr1IXfoVfMOkRUYlj2CtBDHtERERULOzGJSIiInIxhj0iIiIiF2PYozW16aVP9K3isUOqJOOu6gcXPeZ0fKXHpELHllofu9Wq62rUh4iI3Idhj75Wnp2ZcHFXdQh/uzoM7Xc/wj0PPpFzrPKp4/rxQsfM95qcjpnvLXRMKlZ9FqvrUuuzWF3l8cXqupz6EBGRO31js2/LT9XrJbn77nvUK1otD9QHkUj8GbduZS3h6goVOw+L/+iCuP1FHJXfOY7Ub3+Ir764gtuJCDa278s69tXNq5g/ux+3P/9j3mPme+9tfzHvMfO9G3d8L++xYtbH/hmd7vnX2H8WrKt8792B5oJ1le/9yye/KljXpdbny0//t/oOERGR23A2bgly82zcu2sfQeV3f6n2gBvvPqJe5R672deJv982Am+hY5K1u9J+zPreQsekYtRnsboutT6L1bWY9fnbVG53LxERuQPDXgni0itERERULByzR0RERORiDHtERERELsawR0RERORiDHtERERELsawR0RERORiDHtERERELsawR0RERORiDHtEq2R3sAPnurpxrtmvSspNG3wHj6HlyDHUdqsiIiL62rk37Pk70dn9NDo7WuC8DHQQTfK4ueU9j4rPg8PtIgTJIGTbTtaoU4pO3bNsg9cSbetFI8MZEZGruPA3aMgQ1wrftRji3gaxF8PI0BgW1FGdpwU7OhqwEDmDy0lZsAl1HV3O564B9/8GDRm8OtA6H8GTF/VvwNdgLe65Dsmw17sdC2dfxlS/KiMionXNZS17MrS1AiLEDV6Mq7JcvoYGeK6NqqAn3cDVz2LQPCIcsuGHiIiIXMTFvxs3X2udKk+N2gKh0SJYERvAhSs3VNnaKGrLnieID9rvx8TwZ0C4A60eVZ7MbeGSY8x6G8wTBOs5NWGcCwPnI0BPWCbiJM4PJLC9K4x6aBgdHsLrmnFquhUtfak8x5fQypZTJy2KvuE4Tqvd/c3d6IG4TiIg6mcmdcv99M8fgtc4kGMy0o+902onp95AKjaEZ+Lpigu559jrZK9z7jUU/Zla/3Uhn2kEx9Vexi7UHumCD1OIHngHK/2vYsOet9DUZv37u4CpvjcxM+50zMp6X6MuOPsykgHre6znyLF6L6C2St8RMvfJMM7ZPH4Kk9id5zqGvHWbHMDYiQ/VjvQY9r79JB5AHB+/cQJ/UKVEROWOYS/NKPcn3Bj2jLCTDjYqZFiDjh6a/Naw4cdJGeTMIGMGE31fQ09XCNUiv0xEVIhMBzfjfdXWgKO/t9IS+JYY9sT7PqiMWoKSqpMlhBr1Fi/SgUtdG9kBbCn33N/cgYCodzqU5ntOok7Z187H4VmY5PelQcMz6brkq7dUhLDX/Qpanqp2CF02i3bjmnUR5i7h8qE+3DLD3XV7+BLy3tcSCNOhTV3bEuKMoCciYPr9uedkMOwRETkpw9m4NzCTED94t/wj6iytMxVb2xG0tta4TFYL1nQCk+JLdaX6wCJ4dIrANBmxtiolsTcigojnfjxieS6TUTOIeOCdj1pa6wy7gyE9IP7GGm6moxjVPGj02x6wX4SprAkaYexXh3TTEVtISuKSzEai3ruNAkNWy5qGT+T311OFen1/6Y5ftLY+CvbnJD5zoFJ8mdeWEPQWocUtQU8qVO8PMXXgZYzdSateoFr8OYsvCwW95ZBhSw960gi+vC6+bA5gg76/DFmh7UPckA/ccp0NNeIfl3NXMJeud+45Gb/HyTdexUEGPSKiLGW59MrClY8wEgOCHZnZuE34E+yNL2VDBAyvDFLp7kxFDzseVKczmoZZyzNKpebVq4x6rzjZE0JvVojr0Ls9vV6ZlCxkC91Av2Wzd2HK1i7rdVQr3mqRrW2We8nwmR28NLweFQHNDKntwezQuUyylTBzr+7s7uoiu/XeEGZQi9ARuRTKW/BtUwdWSJu+ql4ZUidEGE2Hv+K5Nb0AVG1FVbq+u7BJfFO08U+Lfi8iIrcq23X2ZOAb7D+T3i5cEWFE/KxdmF/bLlxXkC1tWSFObYW6bHOobk2P7FrOXOP8ci6xHGZ3d1YAjegte1mm1fHhKFLpUGtrkVwCo/tZji3MfLa+2Gr+a8NsHTyFqbkK1Pauj/XvbiVmxZ+Z+raoLtyJ90aME4iIaFFlG/bsKrb+I3xaDPHVChOlTJtDCn5st69xVxPQJ19YW/MWM5nK1xW5XJV6i2IqFnWYsLAK9NZNEb5iS/wPQHbDmqHP6dkVpLqDk7nd4KtvBDOHzNAH+Jp3qfJS1Abft2qhjZwS9ZV1VlvOWD0iIiqEYU/wNT+NtgYg/tnar7G3JrQkJkToqA9bW6j8OCknZCwzkJyORzEp3ttzh12cwLweMq1dv+nJGCuiISF7nf0B51Y4PfBau6zVZBC1l5cKicsJxOm6WMYe5sw6ziInJchWrVfyzipevjrcWyVqYuuOxXhC/ztQSiHQU1OnXi1GTtA4ikNv/wTPNqoiIiJy32zciq2Pi+Dm/ENzxlxEWS2qnD7rmn1m7tpajdm4s1lLjDjPErWHqawlQ7Jm1FrfD4dZrk5Bybr8yuIzY3Vm16ralWP8+lIh9AY+T0/IcJodawSneYdlTMyuYbUrWCeu2APXZGQIs6EONCbM57DY5zLkD6UOs53114Ls+o5WoVcub5NT7zufjevddwwhW3KVLWaO3aFqRm7mSeQuvVKR7706s74O0hMynGfw6vXcbM7yFXLqYnJ6Fo149scvokWE2NSFX+EX70+ociKi8ubipVfWL/f/Bg2ipcgXLFWYdFp+pWsfDj0RZNgjIrJgNy4RlaZtAeffV63Kc7qgZcve/wyKr3H8XwY9IqI0tuyVILbsESn6osy1aidjxrbo86MvHcVO2U09dwH/9vN/R9QoJiIigWGvBDHsERERUbGwG5eIiIjIxRj2iIiIiFyMYY+IiIjIxRj2iIiIiFyMYY+IiIjIxRj2iIiIiFyMYY+IiIjIxRj2iIiIiFyMYY+IiIjIxRj2iIiIiFyMYY+IiIjIxRj2iIiIiFyMYY+IiIjIxRj2iIiIiFyMYY+o5O1C7ZFjaDnyFnzbVBEREdESuTLs+ZqfRmd3ZtuxdZM6YrUJdR3W8zrhU0foTnlwuL0b55r9av8O1IRxrqsDhz1qf73Y1otGEdBqu9U+ERHRGnFd2KvY+jiavDGM9J/BoNwi0/A0dKEpK3fIoNeFYGrUOEdsl6/VoImBj0rSh5g68DLGDryJmXFVREREtESuC3sLVz7C4NAYFtQ+khHENcC3JagKZCBsR9AzjcsX46oEmLk4ihnUoN6xFZCIiIhoffqHhm3Nf1evl2Tjxgr1ar1QrXiIYUSFQNnN24RRDFrCHvyd6AzXAFrmvLXyL53fxtgfR5BKpVRJEXiC+KA9BK/alSH4yYtJtWPYHexAb4Olv9R2zv7mbvRAlCUCOBc2m0o1jA4P4XURqHPuYTMZ6cfeabWjd/V2oNVyu1RsCM/IZC7o98rXC6xF0Tccx2m1q3f1pusj2I+nybFvXfBhCtED72ClT3fDnrfQ1Gb9e7CAqT6j1S33mJX1vkZdcPZlJAPW9+Sek2ltdqi37C7u3YrrfeLT7nkBtVWqfHIAYyc+VDsG775jCNWrHQtt5BQm3htRe0LXPhx6QvzjaPIcDr77e1VIRETrVRmEvSCaulvhu2aGOyP8+RMDuHDlhn6G7PptCyRwWYSYpgYNl/sHMaMfWRtFD3sqDFnDlCw7KYKbGb6McJXE+YEIjuslfpzsCqPeEpzSASxdpgIb7OFKlc/nBkrT/uYOBER99JAoqTpmB0JBL6/MBEobI6DCctwMkdbPYipC2Ot+BS1PVafDXV56CNuOBRHmpvpVWRZLkJu7hMuH+nALbfAdFIHtem5QM0LkbJ6wt118amDGvJdex9rMvmAEPcvnVu+DPehJDHtERK7i+tm4vmYR9KAhHjNb8b4Jr6U1SbbytVX+Se/6dcgSLiBCm2z1SkYyQU+azgQ92SLXKU6ZjFjDURJ7IyKoee7HI9bJEVmtZho+SYhreqrg0GBU0PGLtvA2ncCk+FJdab3ZYvzoafCIEPuZ5VoaXo9ERaDxY3uNKkozx76tMOgJGwLV4s9ZfFmssXOyBU4PetIIvrwuvmwOYIO+v3TWYIf+cf0fKxWBNmNfhMiNm8WXyfHM5x7/FNfnxLeupk4VWAycwME3XmXQIyJyCVeHPX2yxhbx4z82jKvpMPAFUvrrb+qzcevnB7K7c7U5d4U+jwcynkwmnFvYdCKseUW4u2RtUZP0ACbev5z8tVSyy7erG+fSW3jZgdH4bBomkrbvmJbEhChaXnBcmlvvDYkgVYtQkZZC0aavqleG1AkRRtPhr1hUiKzfluli3/YwNlfJsarZLYhEROQ+rg17etesHH92bTTdXWu4gYWUyAkNrfBGz2Qd86xCOCAH5tg+OSZwoF9tEb1lr/SZrYOnMDVXgdpeGfpKf4mVW9NyFKoZUsWmunCdu5iJiMhN3Bn2/J3poJfVaqdo87IlaBrJrMauIPyyFTARX9PJGUWnaZgVXwq2cmlzzt2eNQHUQ7y/2E2dekuihtFYgdbGpdA/mweNfttn8/jRKIpm9e/zahnBzCEz9MnhALtUeSnaBX9bhd7VO6YHVWPLGatHRESu5L6w52nBDjmrNk/Qkxau/ElfZqWpObMcizG2bxqTWa2AbpDE+ZgGb0MHTlrDnJygYe6rbs/6cBj7VVFmrF/UcWJEYRoS8+KLP2C5noUeLq3dw2oyiNrLos7NCXS6JC6JvOhteMiy6LIHh8MheLUoztu7pfVJEbJl65W8M4aXrw73Volq2rpjMZ5QM79LJwRmxvAtQk7QePsoDv34eYRUERERrV8um42rlllxygXCTOQMLqcbk9QsXbVXCkuumFZl6RU12zXNYekV+3InWbN3Bf14ZfbMW2M27LzDzNfcpVWsM23ty7xMRoYwG+pAYyL7njp73W1Lqyy2ZEzGnc/GNWa1qh0lZ+kSk2WmrCF3WZWKfO+Vct6fkb6n46xfh2urGbo50jOBLRqfx2s/2CEC8RzGfv0zvD+hyomIaF0qg6VX1p9VCXtUvhwDoVBg+ZVHXzqKnfUMe0REbuD6pVeIyl7dfY6tg2b5QsLWstj4PP5Ztl5ODjLoERG5AFv2ShBb9qjYnH+zR+Y3fxgew963n8QD4lXqwq/wCyY9IiJXYNgrQQx7REREVCzsxiUiIiJyMYY9IiIiIhdj2Csjm176RN8qHjukSjLuqn5w0WNOx1d6TCp0bKn1sVvsnkREROWGYc/FPDszYeeu6hD+dnUY2u9+hHsefCLnWOVTx/XjhY6Z7zU5HTPfW+iYVKz6LLWuRERE5eobm31bfqpeL8ndd9+jXtFqeaA+iETiz7h1685+HX7FzsPiGxzE7S/iqPzOcaR++0N89cUV3E5EsLF9X9axr25exfzZ/bj9+R/zHjPfe2/7i3mPme/duON7eY8Vsz72z2i/p9wnIiIqZ5yNW4KKNRv37tpHUPndX6o94Ma7j6hXucdu9nXi77eNcFnomGTtPrUfs7630DGpGPVZrK5ERETljmGvBHHpFSIiIioWjtkjIiIicjGGPSIiIiIXY9gjIiIicjGGPSIiIiIXY9gjIiIicjGGPSIiIiIXY9gjIiIicjGGPVolfpzs6sa5rg4c9qiiNA8Ot8tj5uZ0jgt0v4KWI8fQcrAXG1QRERHR182VYc/X/DQ6uzPbjq2b1BG7IJr0cx5HnRvDRsnS8PpwP54cEFskqcpKg3cfwxkREbmL68JexdbH0eSNYaT/DAblFpmGp6ELTX51gmIEwjqkYpoqoeJKYq8McwNDeL1cH3H/Oxg78DLGDvWBv8CNiIjWiuvC3sKVjzA4NIYFtY9kBHERNnxbgqpABUKMijA4iBlVRkRERORGZfC7cTehrqMLQcQwYg2Bigx+bQ1AfOgjXC2RFqjV+N24+5u70WNp3ZyM9GPvtPF6d7ADvYHPcT5xP3oaPIAWRV8EeK49BC+SOD8QwXHjVKAmjHNhazOp7bg+Vi+MerWXe9xGv14lRofztwBu2PMWmtoqoI2cwsR7I6p0uXah9kgXfGpPNzmAsRMfihcOxyys99Xrsu0KLh9KwG95T1bd5Fi9p2qN11L6PhmyuzgEUX5xm+XcBUz1vYmZcbUrbetFY+925I4ymEL0wDvI/BfSiGd//CJaquYw9uuf4f0JVUxERGWvDCZofBNe+ZMydSMn6JUHYzJEDyLGGDm5DUdRHe7GyRp1iuQJoccb1Y+lPPfjuXAVBkVImxThrTOoooYniA8Cicx1BoYwqvnR0x7EbuMMwey+7UdfyXSRt8F3UAQzGbpkt6q5pQPYh5hSZdFJsTt3CZct5+UEzKrtaBJBD2fVOWen4GnbDd82ddzsvj1wClNzqsxJfRdavnVT3UueW4HaPZbxgiroQQRJsy56/XKCHhERUX6uD3u+5lb4oCEei6uSMlMTQqsnifMXLRMhtDgGxW59wNpCp2E0Zp4jwl0imtsaJ973jPU64j2fJESg81RZWvKK79Z7b+pBZ+WtenW4t0rUdvqq2r9TsgXuZUz1q92rN8WTqMC9dWp/qWSoTI/nG8HcuPjnSNV9mbBXd5/4Tizg+qeZz526OCX+rMZGM1imTeD9n7+Kg2+wVY+IiLK5OuzpY/O2iB/yseGS6aL9uu2urBR/+tGTXubE2PQu3UqPpUVuHjK3mWbnnR+Y7A62XqdXdvuWvA+RHFmAp+0FYymUfbtU+UrN4stx9VIa78OECKPp8FcsKkRufrhNFQDe5loREq+IYKgKiIiIFuHasGeMxRNB5NooLly5oUrLlRw3Z3a9WrbhOE6rM5bCGPenYdRcNkVspdNVW5jZOii7XPXu0/Ww/t14Qh96kA6pYgvVTyHK2b1ERLQM7gx7/s500Bu8WKbdt8rp+XnxZyUCd9wA50FANhImo+t7KRVzPJ0MfVVbUZXTHVo6NuzpgM82fnCMY/WIiGiZ3Bf2PC3YEa5h0DNNRzGqedDaHsZ+VbQyGhJ6bsx0/eqzeL+Gblw5A1a2ajXuyXRn3qkNgWrxp607Vrg1LcfNlVAItI7hK0jOxj2KQ28fxd4uVURERCS4bOkVtcxKnvwxEzmDy3J+gQyEHQ0Oy1kIJRASi7/0ipyR24FW2wc2l18xQtu8sUSKnHHbHsKsfsxYRqU6NoRn5GKF9mVV5BIt0Sr0hpFZXkW936ufkC2V7zpWyQiezJoEUoSlVxyXL8k/o1VfFsVSuZylV9pmC86GNeubK7O0in6PzdYJGk7XlrOIX0Btlb6TZeZs7hjBR186ip2y3pPncPDd3xuFRERU9spgnb31ZzXW2aP1xykQSkYYdQirjc/jtR/sgJdhj4iILFy/9ArR+tSGjZvVyyyqfO5mziSNR3eKoIc5jH3MoEdERBls2StBbNkjQ57f7GH7jRyhZ3+C7++Qfb1xfPzGCfzBKCYiItIx7JUghj0iIiIqFnbjEhEREbkYwx4RERGRizHsEREREbkYwx4RERGRizHsEREREbkYwx4RERGRizHsEREREbkYwx4RERGRizHsEREREbkYwx4RERGRizHsEREREbkYwx4RERGRizHsEREREbkYwx4RERGRi/1Dw7bmv6vXS7JxY4V6RavlXzq/jbE/jiCVSqmS9cqPk11h1Ks9QMPo8BBe19QuPDjc3oFWDzAZ6cfeaVVcTmrCOBf2i0cTRd9wHKdVscH+/JI4PxDBcbXnFhv2vIWmNvH/lckBjJ34UJUSEVGxuLJlz9f8NDq7M9uOrZvUEQt/Z9Y5nR0tYIwtJhnkRFBJRvDkQL/arEGv1Mj6duNcV+52skad8rVLYq96dn2xUnpwbfAdPIaWfbvUPhERlTLXtexVbH0cbYEERobGsCALZKgL12AmcgaXk/op4ud6C3Z0BJAc+ghX9Z+hQTR1t8J3bRSDF+P6KWvJFS17niA+aL8fE1kteaVMtTLOi3B60fwPpXTsDnagt2G+RFr2ZNh7AbXX2RJHRLQeuK5lb+HKRxg0g56UjCAuwoZvS1AVCNoYLvSbQU+KIy5bTrbUwadK6A55quBVL4mIiGjtlMGYvU2o6+hCELFMa58DvUWwQcS+dGvf2lmVlj29pS2UCWCye9XWgmW0HnnUnmA7Z39zN3ogyhIBY5yZzj4OT9HHolU6H7OM1TM4X0OvT+Bz9A1r6LGMXUvFhvCMTPD6PYDzEaBHr48c05bAdv1c+zXt49/s4wQXa9kzjjcmIpgIhPW6y3r8Bg8Zz8z2rHKepX1MnjlWz+Tw/bBavGVPtbZVLWCq703MjKvi5ep+BS1P1aodw8zZlzHVL15s60Vj73bxJJylz1N12Tx+ChOJbsv1suuWHqunaCPi/PdG1J7Bu+8YQhjA2MVtea+jy1u3KUQPvIPM36RGPPvjF9FSNYexX/8M70+oYiIiFyuD2bjfhFf+BEjdyBv0JE+lPEnDQk4wcQEZLETQgwgn6fFzIrBZx6LJIGeECXN8XQSTfvm+IHarc3SyLDSHPv2cIYxqHrSGzXNkoFJj3fQgI45Zx8E1ZwLi68PqPpH8AUfnCaFXhDSIYGae7214CIfTP9X96NHrI+qLSnSKzzkrQp5erwbzfjKoBXAp/dmMMXD14Q7LdZbG2xBGddR4vzfwEJ7zRo3P4A9lriWe93P4LH0v/VnKz5H+/MK0CHf6MVlXVbbWZGASgUqGtrEDmc0IcMJ4Hyb0slOYmhP7ckKF03mKp+0FEdAgwpZxPDpZgdo9vdigjt9670313gHMqDJH9V1o+dZNXNbPlffOvo4Z9CDColmX6KQ8YA96RETlyfVhz9fcCp8IF/FYgbF4/k40bRERJBYp/ENnXRIBTAavZMRoDTOJsJFu1fIE0SlOmYxYW42S2CtDjOd+PGINRFktVBo+SYhreqpUi1lmQoER4mTrmhl4xFag5So/4xrpumpz4oe3B9WWOk1Gzfp44J2POrQkynCZ3SJ2Ovl5znV0Msya4VTfbIFQfP7z6ecGTMQcPpN4tlnPWjyXS/I08Q+KrOBcVCOYOSSDzh206tXdJz7SAv5yVe3fqblLIqBlwtatafHPrar7MiFtqeR1DvXhlr4zgrlx23VUva9/mmkVTF2cEn9WY+M2Yz9jAu///FUcfIOtekRUPlwd9mTXrBHihvN3zcrJGuEaeRIuX7mhCl3EIwKN+DKZKBC09PF1IpDYlz6ZTmDSKRB9reYh82SaFsczIjhmul81zFqOp1Lz6pWNbN20hjhrl7aV7E41w6m+2bqX5zXL8ii2uqXJlkTLvcTWY2nUK1n9/UarWe8xtBw5htpuVb5S1xMqoBmMlrxVaGm7elP8V1CBzQ+3qQLA21wrQuIVEQxVARFRGXNt2DPG4ImUcm0UF/KFOH1WboP40TyNywXG89E6p8bHyTF26RA3HF2l7j1zPKIcP5gJjedX0qj5tTNbB41uUN9TRuhr3JMJUSVpPKH/3dW7jUV95Raqn0I03RpIRFTe3Bn2/J3poJd/KZUgmsyg1z/owu5bRdMwK75U62MS89C7Rv3Ybl9PriagT3SwtpytR7srK8WfSQxmda2ulkq9JTQVi67rxY9TJzKhz7Pt4eV3vX6NNuzpgE/vMjbqbGwcq0dEZHJf2DO7ZQsGPTlDV47lc3nQ0yVxXk4maOjIXhy4JpzZ15KYEDmoPhzGflWUGevnNAZufTk9L7t2KxEw8659ZnJRzevh2OuVAdOgz2Je9W5ctdDxkbfgyxmntlJt2LhZfLF1x8oWwC+viy/120pneZ0ljwWUs3GP4tDbR7G3SxUREbmcy8KeCHEPydY6YUtr9m/IEFuT+oFbsbUdQf2kGjTZzulstqzH5xKn40P6hIn6sGUcWSCRNe5Nzo49n/SjJz3OLIxq2e25okkViykwa9c6Y7VYpiPis1nuoS/2LGfvOsiZoLHc36AhnmUkipTlOnK5GvtvwJBLqRjH1RI06fMtE0JkKFXXMJZxyXx/PjD+Ay4quRSK2Q1qbPkXTk6dkLNiaxGynL/cMX5yWRXjvV36+paZbthXlhUib713Oqcu5pZbpwlck0FVeKDpMeMFEZHL8XfjliD3/G5cotWnr8W32Tpj16CXy7F79i7dxufx2g92wDt5Dgff/b0qJCJyL1fPxiUit1NdzTlU+dzNnEkaj+4UQQ9zGPuYQY+IygNb9koQW/aIlmMXalVXcBa56LOlCzr07E/w/R1V4lUcH79xAn8wiomIXI9hrwQx7BEREVGxsBuXiIiIyMUY9oiIiIhcjGGvjGx66RN9q3jskCrJuKv6wUWPOR1f6TGp0LGl1sfuTupDRETkRgx7LubZmQk0d1WH8Lerw9B+9yPc8+ATOccqnzquHy90zHyvyemY+d5Cx6Ri1Wexui61PkRERG71jc2+LT9Vr5fk7rvvUa9otTxQH0Qi8WfcunVnv9mzYudh8Q0O4vYXcVR+5zhSv/0hvvriCm4nItjYvi/r2Fc3r2L+7H7c/vyPeY+Z7723/cW8x8z3btzxvbzHilkf+2d0uudfY/9ZsK5/jfarJ0ZEROQ+nI1bgoo1G/fu2kdQ+d1fqj3gxruPqFe5x272deLvt41wWeiYZO0+tR+zvrfQMakY9Vmsrkupj7UeREREbsOwR0RERORiHLNHRERE5GIMe0REREQuxrBHRERE5GIMe0REREQuxrBHRERE5GIMe0REREQuxrBHRERE5GIMe6Xq27MYev+/cUlsQ6/9VRUSERERLY8rF1X2NT+Npi1qR9BiA7hw5Ybak4Jo6m6FT+3pro1i8GJc7ZQQGfr+NYrkf/wT/tf/UWVERERES+S6sFex9XG0BRIYGRrDgizwd6IzXIOZyBlcTuqnOFDhr0QD36Gj/41n0ITtr3pVCREREdHSuK4bd+HKRxg0g56UjCCuAb4tQVXgJI54TJy0pS67tY+IiIhonSufMXveTVi0TVKbg4h8RERERK5RBmHvm/B6xJfUjUxrn52nBU0NHsxELS2CRERERC7g+rDna5YTMTTEY/axeHKc3tPolFtHAzzXRguM6VtbByO1wNYE/u3bqoCIiIhoiVw5G9ekT9Zo8DjMxs1lzOCdxuX+QcyostKSwn+8fxkPohYfPPs/cFCVEhERERXi2pY9M+jJJVUWC3rSzMVREfJqUL91kyopHd9/7f/h0vtzuPDsP2E7gx4REREtgzvDnr8zHfSWu5TKwvziwfDrFqq5DlypYsgjIiKiZXNf2PO0YEe4ZplBbxPqOlrh02KIl+i4PSIiIqKVcNmYPRnauhCUs28dpBdWVgstWy1lXN9a4aLKREREtFKunqDhFgx7REREtFJlsM7eepfCjq3AzemNap+IiIho6diyV6q+PYuhf43iPvn6Clv1iIiIaGUY9oiIiIhcjN24RERERC7GsEdERETkYgx7RERERC7GsEdERETkYgx7RERERC7GsEdERETkYgx7RERERC7GsEdERETkYgx7RERERC7GsEdERETkYgx7RERERC7GsEdERETkYgx7RERERK4F/H/pd1NQuAsFywAAAABJRU5ErkJggg==;" parent="1" vertex="1">
          <mxGeometry x="930" y="150" width="635" height="834" as="geometry" />
        </mxCell>
      </root>
    </mxGraphModel>
  </diagram>
</mxfile>
